<svg viewBox="0 0 24 24" fill="none" xmlns="http://www.w3.org/2000/svg">
<path d="M22.001 9.75C21.591 9.75 21.251 9.41 21.251 9V7C21.251 4.42 19.581 2.75 17.001 2.75H7.00098C4.42098 2.75 2.75098 4.42 2.75098 7V9C2.75098 9.41 2.41098 9.75 2.00098 9.75C1.59098 9.75 1.25098 9.41 1.25098 9V7C1.25098 3.56 3.56098 1.25 7.00098 1.25H17.001C20.441 1.25 22.751 3.56 22.751 7V9C22.751 9.41 22.411 9.75 22.001 9.75Z" fill="currentColor"/>
<path d="M17.001 22.75H7.00098C3.56098 22.75 1.25098 20.44 1.25098 17V15C1.25098 14.59 1.59098 14.25 2.00098 14.25C2.41098 14.25 2.75098 14.59 2.75098 15V17C2.75098 19.58 4.42098 21.25 7.00098 21.25H17.001C19.581 21.25 21.251 19.58 21.251 17V15C21.251 14.59 21.591 14.25 22.001 14.25C22.411 14.25 22.751 14.59 22.751 15V17C22.751 20.44 20.441 22.75 17.001 22.75Z" fill="currentColor"/>
<path d="M16.4011 8.20996L12.6411 6.17996C12.2411 5.96996 11.7711 5.96996 11.3711 6.17996L7.60113 8.20996C7.33113 8.35996 7.16113 8.64996 7.16113 8.96996C7.16113 9.29996 7.33113 9.58996 7.60113 9.73996L11.3611 11.77C11.5611 11.88 11.7811 11.93 12.0011 11.93C12.2211 11.93 12.4411 11.88 12.6411 11.77L16.4011 9.73996C16.6711 9.58996 16.8411 9.29996 16.8411 8.96996C16.8411 8.64996 16.6711 8.35996 16.4011 8.20996Z" fill="currentColor"/>
<path d="M10.741 12.4699L7.24098 10.7199C6.97098 10.5899 6.66098 10.5999 6.40098 10.7599C6.15098 10.9199 6.00098 11.1899 6.00098 11.4899V14.7999C6.00098 15.3699 6.32098 15.8899 6.83098 16.1399L10.331 17.8899C10.451 17.9499 10.581 17.9799 10.721 17.9799C10.881 17.9799 11.031 17.9399 11.171 17.8499C11.431 17.6899 11.581 17.4199 11.581 17.1199V13.8099C11.571 13.2399 11.261 12.7299 10.741 12.4699Z" fill="currentColor"/>
<path d="M17.5909 10.7599C17.3309 10.5999 17.0209 10.5899 16.7509 10.7199L13.2509 12.4699C12.7409 12.7299 12.4209 13.2399 12.4209 13.8099V17.1199C12.4209 17.4199 12.5709 17.6899 12.8309 17.8499C12.9709 17.9399 13.1209 17.9799 13.2809 17.9799C13.4109 17.9799 13.5409 17.9499 13.6709 17.8899L17.1709 16.1399C17.6809 15.8799 18.0009 15.3699 18.0009 14.7999V11.4899C18.0009 11.1899 17.8509 10.9199 17.5909 10.7599Z" fill="currentColor"/>
</svg>
