<svg viewBox="0 0 24 24" fill="none" xmlns="http://www.w3.org/2000/svg">
<path d="M22.001 9.75C21.591 9.75 21.251 9.41 21.251 9V7C21.251 4.42 19.581 2.75 17.001 2.75H7.00098C4.42098 2.75 2.75098 4.42 2.75098 7V9C2.75098 9.41 2.41098 9.75 2.00098 9.75C1.59098 9.75 1.25098 9.41 1.25098 9V7C1.25098 3.56 3.56098 1.25 7.00098 1.25H17.001C20.441 1.25 22.751 3.56 22.751 7V9C22.751 9.41 22.411 9.75 22.001 9.75Z" fill="currentColor"/>
<path d="M17.001 22.75H7.00098C3.56098 22.75 1.25098 20.44 1.25098 17V15C1.25098 14.59 1.59098 14.25 2.00098 14.25C2.41098 14.25 2.75098 14.59 2.75098 15V17C2.75098 19.58 4.42098 21.25 7.00098 21.25H17.001C19.581 21.25 21.251 19.58 21.251 17V15C21.251 14.59 21.591 14.25 22.001 14.25C22.411 14.25 22.751 14.59 22.751 15V17C22.751 20.44 20.441 22.75 17.001 22.75Z" fill="currentColor"/>
<path d="M12.0006 13.08C11.8706 13.08 11.7406 13.0499 11.6206 12.9799L6.3206 9.91992C5.9606 9.70992 5.8406 9.24995 6.0506 8.88995C6.2606 8.52995 6.7206 8.40993 7.0706 8.61993L11.9906 11.4699L16.8806 8.63995C17.2406 8.42995 17.7006 8.55991 17.9006 8.90991C18.1106 9.26991 17.9806 9.72994 17.6306 9.93994L12.3706 12.9799C12.2606 13.0399 12.1306 13.08 12.0006 13.08Z" fill="currentColor"/>
<path d="M12.001 18.5201C11.591 18.5201 11.251 18.1801 11.251 17.7701V12.3301C11.251 11.9201 11.591 11.5801 12.001 11.5801C12.411 11.5801 12.751 11.9201 12.751 12.3301V17.7701C12.751 18.1801 12.411 18.5201 12.001 18.5201Z" fill="currentColor"/>
<path d="M12.0012 18.7498C11.4212 18.7498 10.8512 18.6198 10.3912 18.3698L7.19121 16.5898C6.23121 16.0598 5.49121 14.7898 5.49121 13.6898V10.2998C5.49121 9.2098 6.24121 7.93983 7.19121 7.39983L10.3912 5.6198C11.3112 5.1098 12.6912 5.1098 13.6112 5.6198L16.8112 7.39983C17.7712 7.92983 18.5112 9.1998 18.5112 10.2998V13.6898C18.5112 14.7798 17.7612 16.0498 16.8112 16.5898L13.6112 18.3698C13.1512 18.6198 12.5812 18.7498 12.0012 18.7498ZM11.1212 6.93981L7.9212 8.71978C7.4312 8.98978 6.99121 9.7498 6.99121 10.2998V13.6898C6.99121 14.2498 7.4312 14.9998 7.9212 15.2698L11.1212 17.0498C11.5812 17.2998 12.4212 17.2998 12.8812 17.0498L16.0812 15.2698C16.5712 14.9998 17.0112 14.2398 17.0112 13.6898V10.2998C17.0112 9.7398 16.5712 8.98978 16.0812 8.71978L12.8812 6.93981C12.4212 6.68981 11.5812 6.68981 11.1212 6.93981Z" fill="currentColor"/>
</svg>
