<svg width="24" height="24" viewBox="0 0 24 24" fill="none" xmlns="http://www.w3.org/2000/svg">
<path d="M16.8198 1.91016H7.17982C5.05982 1.91016 3.31982 3.65016 3.31982 5.77016V19.8602C3.31982 21.6602 4.60982 22.4202 6.18982 21.5502L11.0698 18.8402C11.5898 18.5502 12.4298 18.5502 12.9398 18.8402L17.8198 21.5502C19.3998 22.4302 20.6898 21.6702 20.6898 19.8602V5.77016C20.6798 3.65016 18.9498 1.91016 16.8198 1.91016ZM15.6198 9.03016L11.6198 13.0302C11.4698 13.1802 11.2798 13.2502 11.0898 13.2502C10.8998 13.2502 10.7098 13.1802 10.5598 13.0302L9.05982 11.5302C8.76982 11.2402 8.76982 10.7602 9.05982 10.4702C9.34982 10.1802 9.82982 10.1802 10.1198 10.4702L11.0898 11.4402L14.5598 7.97016C14.8498 7.68016 15.3298 7.68016 15.6198 7.97016C15.9098 8.26016 15.9098 8.74016 15.6198 9.03016Z" fill="#292D32"/>
</svg>
