<svg viewBox="0 0 24 24" xmlns="http://www.w3.org/2000/svg"><path d="M23 18.25V22H1v-3.75c0-.688.495-1.25 1.1-1.25h19.8c.605 0 1.1.563 1.1 1.25Z" fill="currentColor"/><path d="M7 11H5v7h2v-7ZM11 11H9v7h2v-7ZM15 11h-2v7h2v-7ZM19 11h-2v7h2v-7ZM23 22.75H1c-.41 0-.75-.34-.75-.75s.34-.75.75-.75h22c.41 0 .75.34.75.75s-.34.75-.75.75ZM21.37 5.75l-9-3.6c-.2-.08-.54-.08-.74 0l-9 3.6c-.35.14-.63.55-.63.93V10c0 .55.45 1 1 1h18c.55 0 1-.45 1-1V6.68c0-.38-.28-.79-.63-.93ZM12 8.5c-.83 0-1.5-.67-1.5-1.5s.67-1.5 1.5-1.5 1.5.67 1.5 1.5-.67 1.5-1.5 1.5Z" fill="currentColor"/></svg>
