<svg viewBox="0 0 24 24" fill="none" xmlns="http://www.w3.org/2000/svg">
<path d="M17.6014 5.30979L11.9514 2.26979C11.3514 1.94979 10.6414 1.94979 10.0414 2.26979L4.40145 5.30979C3.99145 5.53979 3.73145 5.97978 3.73145 6.45978C3.73145 6.94979 3.98145 7.38979 4.40145 7.60979L10.0514 10.6498C10.3514 10.8098 10.6814 10.8898 11.0014 10.8898C11.3214 10.8898 11.6614 10.8098 11.9514 10.6498L17.6014 7.60979C18.0114 7.38979 18.2714 6.94979 18.2714 6.45978C18.2714 5.97978 18.0114 5.53979 17.6014 5.30979Z" fill="currentColor"/>
<path d="M9.12098 11.7096L3.87098 9.0896C3.46098 8.8796 3.00098 8.9096 2.61098 9.1396C2.23098 9.3796 2.00098 9.7896 2.00098 10.2396V15.1996C2.00098 16.0596 2.48098 16.8296 3.25098 17.2196L8.50098 19.8396C8.68098 19.9296 8.88098 19.9796 9.08098 19.9796C9.31098 19.9796 9.55098 19.9096 9.76098 19.7896C10.141 19.5496 10.371 19.1396 10.371 18.6896V13.7296C10.361 12.8696 9.88098 12.0996 9.12098 11.7096Z" fill="currentColor"/>
<path d="M20.0006 10.2396V12.6996C19.5206 12.5596 19.0106 12.4996 18.5006 12.4996C17.1406 12.4996 15.8106 12.9696 14.7606 13.8096C13.3206 14.9396 12.5006 16.6496 12.5006 18.4996C12.5006 18.9896 12.5606 19.4796 12.6906 19.9496C12.5406 19.9296 12.3906 19.8696 12.2506 19.7796C11.8706 19.5496 11.6406 19.1396 11.6406 18.6896V13.7296C11.6406 12.8696 12.1206 12.0996 12.8806 11.7096L18.1306 9.0896C18.5406 8.8796 19.0006 8.9096 19.3906 9.1396C19.7706 9.3796 20.0006 9.7896 20.0006 10.2396Z" fill="currentColor"/>
<path d="M22.001 15.7C22.001 15.69 21.991 15.68 21.981 15.67C21.941 15.61 21.891 15.55 21.841 15.5C21.831 15.49 21.821 15.47 21.811 15.46C21.001 14.56 19.811 14 18.501 14C17.241 14 16.091 14.52 15.271 15.36C14.481 16.17 14.001 17.28 14.001 18.5C14.001 19.34 14.241 20.14 14.651 20.82C14.871 21.19 15.151 21.53 15.471 21.81C15.491 21.82 15.501 21.83 15.511 21.84C15.561 21.89 15.611 21.93 15.671 21.98C15.671 21.98 15.671 21.98 15.681 21.98C15.691 21.99 15.701 22 15.711 22C16.461 22.63 17.431 23 18.501 23C20.141 23 21.571 22.12 22.351 20.82C22.581 20.43 22.761 20 22.871 19.55C22.961 19.21 23.001 18.86 23.001 18.5C23.001 17.44 22.631 16.46 22.001 15.7ZM20.181 19.23H19.251V20.2C19.251 20.61 18.911 20.95 18.501 20.95C18.091 20.95 17.751 20.61 17.751 20.2V19.23H16.821C16.411 19.23 16.071 18.89 16.071 18.48C16.071 18.07 16.411 17.73 16.821 17.73H17.751V16.84C17.751 16.43 18.091 16.09 18.501 16.09C18.911 16.09 19.251 16.43 19.251 16.84V17.73H20.181C20.591 17.73 20.931 18.07 20.931 18.48C20.931 18.89 20.601 19.23 20.181 19.23Z" fill="currentColor"/>
</svg>
