<svg viewBox="0 0 24 24" fill="none" xmlns="http://www.w3.org/2000/svg">
<path d="M19.001 22.7502C17.381 22.7502 15.851 21.9102 14.991 20.5302C14.531 19.8202 14.271 18.9701 14.251 18.1001C14.221 16.6401 14.8411 15.2801 15.9511 14.3601C16.7811 13.6701 17.8211 13.2802 18.8911 13.2502C20.1911 13.2402 21.361 13.6902 22.281 14.5702C23.201 15.4502 23.721 16.6302 23.741 17.9002C23.761 18.7702 23.541 19.6202 23.101 20.3702C22.861 20.7902 22.551 21.1802 22.181 21.5102C21.361 22.2802 20.261 22.7302 19.091 22.7502C19.071 22.7502 19.041 22.7502 19.001 22.7502ZM19.001 14.7502C18.981 14.7502 18.951 14.7502 18.931 14.7502C18.191 14.7702 17.491 15.0302 16.911 15.5102C16.151 16.1402 15.731 17.0702 15.751 18.0702C15.761 18.6602 15.941 19.2401 16.251 19.7301C16.861 20.7101 17.921 21.3102 19.061 21.2502C19.851 21.2302 20.6011 20.9302 21.1711 20.4002C21.4311 20.1702 21.641 19.9102 21.801 19.6302C22.101 19.1102 22.251 18.5302 22.241 17.9402C22.221 17.0702 21.871 16.2601 21.241 15.6601C20.641 15.0701 19.841 14.7502 19.001 14.7502Z" fill="currentColor"/>
<path d="M18.4509 19.7497C18.2609 19.7497 18.0808 19.6797 17.9308 19.5397L16.9209 18.5797C16.6209 18.2897 16.6108 17.8197 16.9008 17.5197C17.1908 17.2197 17.6608 17.2097 17.9608 17.4997L18.4509 17.9697L20.0208 16.4497C20.3208 16.1597 20.7908 16.1697 21.0808 16.4697C21.3708 16.7697 21.3608 17.2397 21.0608 17.5297L18.9708 19.5497C18.8208 19.6797 18.6309 19.7497 18.4509 19.7497Z" fill="currentColor"/>
<path d="M12.0013 13.2999C11.8713 13.2999 11.7413 13.2699 11.6213 13.1999L2.79132 8.0899C2.43132 7.8799 2.3113 7.41987 2.5213 7.05987C2.7313 6.69987 3.19132 6.57985 3.54132 6.78985L11.9913 11.6799L20.3913 6.81988C20.7513 6.60988 21.2113 6.7399 21.4113 7.0899C21.6213 7.4499 21.4913 7.90987 21.1413 8.11987L12.3713 13.1999C12.2613 13.2599 12.1313 13.2999 12.0013 13.2999Z" fill="currentColor"/>
<path d="M12.001 22.36C11.591 22.36 11.251 22.02 11.251 21.61V12.54C11.251 12.13 11.591 11.79 12.001 11.79C12.411 11.79 12.751 12.13 12.751 12.54V21.61C12.751 22.02 12.411 22.36 12.001 22.36Z" fill="currentColor"/>
<path d="M12.0009 22.7499C11.1209 22.7499 10.2409 22.5599 9.56085 22.1699L4.22086 19.2099C2.77086 18.4099 1.63086 16.4799 1.63086 14.8199V9.1599C1.63086 7.4999 2.77086 5.57994 4.22086 4.76994L9.56085 1.80992C10.9209 1.03992 13.0608 1.03992 14.4308 1.80992L19.7708 4.76994C21.2208 5.56994 22.3608 7.4999 22.3608 9.1599V14.8199C22.3608 14.9199 22.3609 14.9999 22.3409 15.0999C22.2909 15.3599 22.1009 15.5799 21.8509 15.6599C21.6009 15.7499 21.3208 15.6899 21.1108 15.5199C19.9608 14.5199 18.1809 14.4799 16.9709 15.4499C16.2009 16.0599 15.7509 16.9899 15.7509 17.9799C15.7509 18.5699 15.9109 19.1499 16.2209 19.6499C16.3009 19.7899 16.3809 19.8999 16.4709 20.0099C16.6209 20.1799 16.6809 20.4099 16.6409 20.6299C16.6009 20.8499 16.4609 21.0399 16.2609 21.1499L14.4308 22.1599C13.7508 22.5599 12.8809 22.7499 12.0009 22.7499ZM12.0009 2.74992C11.3809 2.74992 10.7508 2.87993 10.3008 3.12993L4.96085 6.08995C3.99085 6.61995 3.15085 8.0599 3.15085 9.1599V14.8199C3.15085 15.9199 4.00085 17.3599 4.96085 17.8899L10.3008 20.8499C11.2108 21.3599 12.8008 21.3599 13.7108 20.8499L14.8308 20.2299C14.4608 19.5599 14.2609 18.7799 14.2609 17.9799C14.2609 16.5199 14.9109 15.1699 16.0409 14.2699C17.4009 13.1799 19.3408 12.9499 20.8708 13.5999V9.13994C20.8708 8.03994 20.0209 6.59993 19.0609 6.06993L13.7209 3.10991C13.2509 2.87991 12.6209 2.74992 12.0009 2.74992Z" fill="currentColor"/>
</svg>
