<svg viewBox="0 0 24 24" fill="none" xmlns="http://www.w3.org/2000/svg">
<path d="M20.2112 7.81994L12.5112 12.2799C12.2012 12.4599 11.8112 12.4599 11.4912 12.2799L3.79119 7.81994C3.24119 7.49994 3.10119 6.74994 3.52119 6.27994C3.81119 5.94994 4.14119 5.67994 4.49119 5.48994L9.91119 2.48994C11.0712 1.83994 12.9512 1.83994 14.1112 2.48994L19.5312 5.48994C19.8812 5.67994 20.2112 5.95994 20.5012 6.27994C20.9012 6.74994 20.7612 7.49994 20.2112 7.81994Z" fill="currentColor"/>
<path d="M11.4314 14.1399V20.9599C11.4314 21.7199 10.6614 22.2199 9.98144 21.8899C7.92144 20.8799 4.45145 18.9899 4.45145 18.9899C3.23145 18.2999 2.23145 16.5599 2.23145 15.1299V9.96988C2.23145 9.17988 3.06145 8.67988 3.74145 9.06988L10.9314 13.2399C11.2314 13.4299 11.4314 13.7699 11.4314 14.1399Z" fill="currentColor"/>
<path d="M12.5713 14.1399V20.9599C12.5713 21.7199 13.3413 22.2199 14.0213 21.8899C16.0813 20.8799 19.5513 18.9899 19.5513 18.9899C20.7713 18.2999 21.7713 16.5599 21.7713 15.1299V9.96988C21.7713 9.17988 20.9413 8.67988 20.2613 9.06988L13.0713 13.2399C12.7713 13.4299 12.5713 13.7699 12.5713 14.1399Z" fill="currentColor"/>
</svg>
