<svg viewBox="0 0 24 24" fill="none" xmlns="http://www.w3.org/2000/svg">
<path d="M17.6014 5.30979L11.9514 2.26979C11.3514 1.94979 10.6414 1.94979 10.0414 2.26979L4.40145 5.30979C3.99145 5.53979 3.73145 5.97978 3.73145 6.45978C3.73145 6.94979 3.98145 7.38979 4.40145 7.60979L10.0514 10.6498C10.3514 10.8098 10.6814 10.8898 11.0014 10.8898C11.3214 10.8898 11.6614 10.8098 11.9514 10.6498L17.6014 7.60979C18.0114 7.38979 18.2714 6.94979 18.2714 6.45978C18.2714 5.97978 18.0114 5.53979 17.6014 5.30979Z" fill="currentColor"/>
<path d="M9.12098 11.7096L3.87098 9.0896C3.46098 8.8796 3.00098 8.9096 2.61098 9.1396C2.23098 9.3796 2.00098 9.7896 2.00098 10.2396V15.1996C2.00098 16.0596 2.48098 16.8296 3.25098 17.2196L8.50098 19.8396C8.68098 19.9296 8.88098 19.9796 9.08098 19.9796C9.31098 19.9796 9.55098 19.9096 9.76098 19.7896C10.141 19.5496 10.371 19.1396 10.371 18.6896V13.7296C10.361 12.8696 9.88098 12.0996 9.12098 11.7096Z" fill="currentColor"/>
<path d="M20.0006 10.2396V12.6996C19.5206 12.5596 19.0106 12.4996 18.5006 12.4996C17.1406 12.4996 15.8106 12.9696 14.7606 13.8096C13.3206 14.9396 12.5006 16.6496 12.5006 18.4996C12.5006 18.9896 12.5606 19.4796 12.6906 19.9496C12.5406 19.9296 12.3906 19.8696 12.2506 19.7796C11.8706 19.5496 11.6406 19.1396 11.6406 18.6896V13.7296C11.6406 12.8696 12.1206 12.0996 12.8806 11.7096L18.1306 9.0896C18.5406 8.8796 19.0006 8.9096 19.3906 9.1396C19.7706 9.3796 20.0006 9.7896 20.0006 10.2396Z" fill="currentColor"/>
<path d="M21.981 15.67C21.161 14.66 19.911 14.02 18.501 14.02C17.441 14.02 16.461 14.39 15.691 15.01C14.651 15.83 14.001 17.1 14.001 18.52C14.001 19.36 14.241 20.16 14.651 20.84C14.921 21.29 15.261 21.68 15.661 22H15.671C16.441 22.64 17.431 23.02 18.501 23.02C19.641 23.02 20.671 22.6 21.461 21.9C21.811 21.6 22.111 21.24 22.351 20.84C22.761 20.16 23.001 19.36 23.001 18.52C23.001 17.44 22.621 16.44 21.981 15.67ZM20.761 17.96L18.361 20.18C18.221 20.31 18.031 20.38 17.851 20.38C17.661 20.38 17.471 20.31 17.321 20.16L16.211 19.05C15.921 18.76 15.921 18.28 16.211 17.99C16.501 17.7 16.981 17.7 17.271 17.99L17.871 18.59L19.741 16.86C20.041 16.58 20.521 16.6 20.801 16.9C21.091 17.21 21.071 17.68 20.761 17.96Z" fill="currentColor"/>
</svg>
