<svg viewBox="0 0 24 24" fill="none" xmlns="http://www.w3.org/2000/svg">
<path d="M12.0013 13.2999C11.8713 13.2999 11.7413 13.2699 11.6213 13.1999L2.79132 8.0899C2.43132 7.8799 2.3113 7.41987 2.5213 7.05987C2.7313 6.69987 3.1813 6.57985 3.5513 6.78985L12.0013 11.6799L20.4013 6.81988C20.7613 6.60988 21.2213 6.7399 21.4313 7.0899C21.6413 7.4499 21.5113 7.90987 21.1613 8.11987L12.3913 13.1999C12.2613 13.2599 12.1313 13.2999 12.0013 13.2999Z" fill="currentColor"/>
<path d="M12.001 22.36C11.591 22.36 11.251 22.02 11.251 21.61V12.54C11.251 12.13 11.591 11.79 12.001 11.79C12.411 11.79 12.751 12.13 12.751 12.54V21.61C12.751 22.02 12.411 22.36 12.001 22.36Z" fill="currentColor"/>
<path d="M12.0009 22.7502C11.1209 22.7502 10.2409 22.5602 9.56085 22.1702L4.22086 19.2103C2.77086 18.4103 1.63086 16.4802 1.63086 14.8202V9.16021C1.63086 7.50021 2.77086 5.58026 4.22086 4.77026L9.56085 1.81023C10.9209 1.05023 13.0608 1.05023 14.4308 1.81023L19.7708 4.77026C21.2208 5.57026 22.3608 7.50021 22.3608 9.16021V14.8202C22.3608 14.8902 22.3608 14.9902 22.3308 15.1202C22.2708 15.3802 22.0808 15.5902 21.8308 15.6702C21.5808 15.7502 21.3009 15.7003 21.1009 15.5203C19.9609 14.5203 18.1808 14.4802 16.9608 15.4502C16.1908 16.0602 15.7408 16.9902 15.7408 17.9802C15.7408 18.5702 15.9008 19.1503 16.2108 19.6503C16.2908 19.7903 16.3708 19.9002 16.4608 20.0002C16.6108 20.1702 16.6709 20.4002 16.6309 20.6202C16.5909 20.8402 16.4509 21.0403 16.2509 21.1403L14.4209 22.1503C13.7509 22.5603 12.8809 22.7502 12.0009 22.7502ZM12.0009 2.75024C11.3809 2.75024 10.7508 2.88024 10.3008 3.13024L4.96085 6.09026C3.99085 6.63026 3.15085 8.06021 3.15085 9.16021V14.8202C3.15085 15.9202 4.00085 17.3603 4.96085 17.8903L10.3008 20.8502C11.2108 21.3602 12.8008 21.3602 13.7108 20.8502L14.8308 20.2302C14.4608 19.5602 14.2609 18.7802 14.2609 17.9802C14.2609 16.5202 14.9109 15.1703 16.0409 14.2703C17.4109 13.1803 19.3508 12.9502 20.8708 13.6102V9.15026C20.8708 8.05026 20.0209 6.61025 19.0609 6.08025L13.7209 3.12023C13.2509 2.88023 12.6209 2.75024 12.0009 2.75024Z" fill="currentColor"/>
<path d="M19.001 22.75C16.381 22.75 14.251 20.62 14.251 18C14.251 16.54 14.901 15.19 16.031 14.29C16.871 13.62 17.931 13.25 19.001 13.25C21.621 13.25 23.751 15.38 23.751 18C23.751 19.36 23.161 20.66 22.131 21.56C21.261 22.33 20.151 22.75 19.001 22.75ZM19.001 14.75C18.261 14.75 17.561 15 16.971 15.47C16.201 16.08 15.751 17.01 15.751 18C15.751 19.79 17.211 21.25 19.001 21.25C19.781 21.25 20.541 20.96 21.151 20.44C21.851 19.82 22.251 18.94 22.251 18C22.251 16.21 20.791 14.75 19.001 14.75Z" fill="currentColor"/>
<path d="M18.0009 19.75C17.7509 19.75 17.5009 19.62 17.3609 19.39C17.1509 19.03 17.2609 18.57 17.6209 18.36L18.5109 17.83V16.75C18.5109 16.34 18.8509 16 19.2609 16C19.6709 16 20.0109 16.34 20.0109 16.75V18.25C20.0109 18.51 19.8709 18.76 19.6509 18.89L18.4009 19.64C18.2609 19.72 18.1309 19.75 18.0009 19.75Z" fill="currentColor"/>
</svg>
