<svg viewBox="0 0 24 24" fill="none" xmlns="http://www.w3.org/2000/svg">
<path d="M17.6014 5.30979L11.9514 2.26979C11.3514 1.94979 10.6414 1.94979 10.0414 2.26979L4.40145 5.30979C3.99145 5.53979 3.73145 5.97978 3.73145 6.45978C3.73145 6.94979 3.98145 7.38979 4.40145 7.60979L10.0514 10.6498C10.3514 10.8098 10.6814 10.8898 11.0014 10.8898C11.3214 10.8898 11.6614 10.8098 11.9514 10.6498L17.6014 7.60979C18.0114 7.38979 18.2714 6.94979 18.2714 6.45978C18.2714 5.97978 18.0114 5.53979 17.6014 5.30979Z" fill="currentColor"/>
<path d="M9.12098 11.7096L3.87098 9.0896C3.46098 8.8796 3.00098 8.9096 2.61098 9.1396C2.23098 9.3796 2.00098 9.7896 2.00098 10.2396V15.1996C2.00098 16.0596 2.48098 16.8296 3.25098 17.2196L8.50098 19.8396C8.68098 19.9296 8.88098 19.9796 9.08098 19.9796C9.31098 19.9796 9.55098 19.9096 9.76098 19.7896C10.141 19.5496 10.371 19.1396 10.371 18.6896V13.7296C10.361 12.8696 9.88098 12.0996 9.12098 11.7096Z" fill="currentColor"/>
<path d="M20.0006 10.2396V12.6996C19.5206 12.5596 19.0106 12.4996 18.5006 12.4996C17.1406 12.4996 15.8106 12.9696 14.7606 13.8096C13.3206 14.9396 12.5006 16.6496 12.5006 18.4996C12.5006 18.9896 12.5606 19.4796 12.6906 19.9496C12.5406 19.9296 12.3906 19.8696 12.2506 19.7796C11.8706 19.5496 11.6406 19.1396 11.6406 18.6896V13.7296C11.6406 12.8696 12.1206 12.0996 12.8806 11.7096L18.1306 9.0896C18.5406 8.8796 19.0006 8.9096 19.3906 9.1396C19.7706 9.3796 20.0006 9.7896 20.0006 10.2396Z" fill="currentColor"/>
<path d="M21.6814 15.3202C20.7914 14.4302 19.6114 13.9802 18.4414 14.0002C17.3114 14.0102 16.1814 14.4602 15.3214 15.3202C14.7214 15.9102 14.3314 16.6502 14.1414 17.4202C14.0314 17.8402 13.9914 18.2702 14.0214 18.7002V18.7502C14.0214 18.8202 14.0314 18.8801 14.0414 18.9601C14.0414 18.9601 14.0414 18.9601 14.0514 18.9701V19.0002C14.1414 19.9802 14.5614 20.9302 15.3214 21.6802C16.4814 22.8402 18.1114 23.2302 19.5814 22.8602C20.0214 22.7502 20.4514 22.5702 20.8514 22.3302C21.1514 22.1602 21.4314 21.9402 21.6814 21.6802C22.4314 20.9302 22.8614 19.9802 22.9514 18.9901C22.9614 18.9901 22.9614 18.9701 22.9614 18.9601C22.9814 18.8901 22.9814 18.8102 22.9814 18.7401C22.9814 18.7301 22.9914 18.7102 22.9914 18.6902C23.0514 17.4802 22.6114 16.2401 21.6814 15.3202ZM20.2314 20.2101C19.9414 20.5001 19.4714 20.5001 19.1714 20.2101L18.5114 19.5501L17.8314 20.2301C17.5314 20.5301 17.0614 20.5301 16.7714 20.2301C16.4714 19.9401 16.4714 19.4702 16.7714 19.1702L17.4514 18.4901L16.7914 17.8302C16.5014 17.5302 16.5014 17.0602 16.7914 16.7702C17.0914 16.4702 17.5614 16.4702 17.8614 16.7702L18.5114 17.4302L19.1414 16.7902C19.4414 16.5002 19.9114 16.5002 20.2114 16.7902C20.5014 17.0902 20.5014 17.5602 20.2114 17.8602L19.5714 18.4901L20.2314 19.1401C20.5314 19.4401 20.5314 19.9101 20.2314 20.2101Z" fill="currentColor"/>
</svg>
