<svg viewBox="0 0 24 24" fill="none" xmlns="http://www.w3.org/2000/svg">
<path d="M12.0013 13.2999C11.8713 13.2999 11.7413 13.2699 11.6213 13.1999L2.79132 8.0899C2.43132 7.8799 2.3113 7.41987 2.5213 7.05987C2.7313 6.69987 3.19132 6.57985 3.54132 6.78985L11.9913 11.6799L20.3913 6.81988C20.7513 6.60988 21.2113 6.7399 21.4113 7.0899C21.6213 7.4499 21.4913 7.90987 21.1413 8.11987L12.3713 13.1999C12.2613 13.2599 12.1313 13.2999 12.0013 13.2999Z" fill="currentColor"/>
<path d="M12.001 22.36C11.591 22.36 11.251 22.02 11.251 21.61V12.54C11.251 12.13 11.591 11.79 12.001 11.79C12.411 11.79 12.751 12.13 12.751 12.54V21.61C12.751 22.02 12.411 22.36 12.001 22.36Z" fill="currentColor"/>
<path d="M12.0009 22.7499C11.1209 22.7499 10.2409 22.5599 9.56085 22.1699L4.22086 19.2099C2.77086 18.4099 1.63086 16.4799 1.63086 14.8199V9.1599C1.63086 7.4999 2.77086 5.57994 4.22086 4.76994L9.56085 1.80992C10.9209 1.03992 13.0608 1.03992 14.4308 1.80992L19.7708 4.76994C21.2208 5.56994 22.3608 7.4999 22.3608 9.1599V14.8199C22.3608 14.9199 22.3609 14.9999 22.3409 15.0999C22.2909 15.3599 22.1009 15.5799 21.8509 15.6599C21.6009 15.7499 21.3208 15.6899 21.1108 15.5199C19.9608 14.5199 18.1809 14.4799 16.9709 15.4499C16.2009 16.0599 15.7509 16.9899 15.7509 17.9799C15.7509 18.5699 15.9109 19.1499 16.2209 19.6499C16.3009 19.7899 16.3809 19.8999 16.4709 20.0099C16.6209 20.1799 16.6809 20.4099 16.6409 20.6299C16.6009 20.8499 16.4609 21.0399 16.2609 21.1499L14.4308 22.1599C13.7508 22.5599 12.8809 22.7499 12.0009 22.7499ZM12.0009 2.74992C11.3809 2.74992 10.7508 2.87993 10.3008 3.12993L4.96085 6.08995C3.99085 6.61995 3.15085 8.0599 3.15085 9.1599V14.8199C3.15085 15.9199 4.00085 17.3599 4.96085 17.8899L10.3008 20.8499C11.2108 21.3599 12.8008 21.3599 13.7108 20.8499L14.8308 20.2299C14.4608 19.5599 14.2609 18.7799 14.2609 17.9799C14.2609 16.5199 14.9109 15.1699 16.0409 14.2699C17.4009 13.1799 19.3508 12.9499 20.8708 13.5999V9.13994C20.8708 8.03994 20.0209 6.59993 19.0609 6.06993L13.7209 3.10991C13.2509 2.87991 12.6209 2.74992 12.0009 2.74992Z" fill="currentColor"/>
<path d="M19.001 22.75C17.341 22.75 15.781 21.87 14.941 20.44C14.491 19.72 14.251 18.87 14.251 18C14.251 16.54 14.901 15.19 16.031 14.29C16.871 13.62 17.931 13.25 19.001 13.25C21.621 13.25 23.751 15.38 23.751 18C23.751 18.87 23.511 19.72 23.061 20.45C22.821 20.87 22.491 21.25 22.111 21.57C21.281 22.33 20.171 22.75 19.001 22.75ZM19.001 14.75C18.261 14.75 17.561 15 16.971 15.47C16.201 16.08 15.751 17.01 15.751 18C15.751 18.59 15.911 19.17 16.221 19.67C16.811 20.67 17.851 21.25 19.001 21.25C19.791 21.25 20.551 20.96 21.131 20.44C21.391 20.22 21.611 19.96 21.771 19.68C22.091 19.17 22.251 18.59 22.251 18C22.251 16.21 20.791 14.75 19.001 14.75Z" fill="currentColor"/>
<path d="M20.0704 19.7901C19.8804 19.7901 19.6904 19.7201 19.5404 19.5701L17.4304 17.4601C17.1404 17.1701 17.1404 16.6901 17.4304 16.4001C17.7204 16.1101 18.2004 16.1101 18.4904 16.4001L20.6004 18.5101C20.8904 18.8001 20.8904 19.2801 20.6004 19.5701C20.4504 19.7201 20.2604 19.7901 20.0704 19.7901Z" fill="currentColor"/>
<path d="M17.9311 19.8199C17.7411 19.8199 17.5511 19.7499 17.4011 19.5999C17.1111 19.3099 17.1111 18.8299 17.4011 18.5399L19.5111 16.4299C19.8011 16.1399 20.2811 16.1399 20.5711 16.4299C20.8611 16.7199 20.8611 17.1999 20.5711 17.4899L18.4611 19.5999C18.3111 19.7499 18.1211 19.8199 17.9311 19.8199Z" fill="currentColor"/>
</svg>
