<svg viewBox="0 0 24 24" fill="none" xmlns="http://www.w3.org/2000/svg">
<path d="M19.0012 22.7502C17.6012 22.7502 16.2912 22.1403 15.3912 21.0703C15.3812 21.0503 15.3212 21.0002 15.2712 20.9202C15.1612 20.8102 15.0312 20.6102 14.9212 20.4202C14.4812 19.7102 14.2412 18.8702 14.2412 17.9902C14.2412 16.5302 14.8912 15.1803 16.0212 14.2803C16.8612 13.6103 17.9212 13.2402 18.9912 13.2402C20.1512 13.2402 21.2212 13.6403 22.0812 14.3903C22.2012 14.4703 22.3412 14.6203 22.4712 14.7603C23.2812 15.6503 23.7312 16.7902 23.7312 17.9802C23.7312 18.8502 23.4912 19.7002 23.0412 20.4302C22.8012 20.8502 22.4712 21.2302 22.0912 21.5502C21.2812 22.3302 20.1712 22.7502 19.0012 22.7502ZM19.0012 14.7502C18.2612 14.7502 17.5612 15.0002 16.9712 15.4702C16.2012 16.0802 15.7512 17.0102 15.7512 18.0002C15.7512 18.5902 15.9112 19.1702 16.2212 19.6702C16.3012 19.8102 16.3812 19.9203 16.4712 20.0303C16.4912 20.0503 16.5512 20.1102 16.6012 20.1902C17.1512 20.8402 18.0512 21.2603 19.0012 21.2603C19.7912 21.2603 20.5512 20.9703 21.1312 20.4503C21.3912 20.2303 21.6112 19.9702 21.7712 19.6902C22.0912 19.1802 22.2512 18.6003 22.2512 18.0103C22.2512 17.2003 21.9412 16.4102 21.3812 15.8002C21.3112 15.7202 21.2312 15.6403 21.1512 15.5803C20.5212 15.0203 19.7912 14.7502 19.0012 14.7502Z" fill="currentColor"/>
<path d="M20.491 18.73H17.501C17.091 18.73 16.751 18.39 16.751 17.98C16.751 17.57 17.091 17.23 17.501 17.23H20.491C20.901 17.23 21.241 17.57 21.241 17.98C21.241 18.39 20.911 18.73 20.491 18.73Z" fill="currentColor"/>
<path d="M19.001 20.26C18.591 20.26 18.251 19.92 18.251 19.51V16.52C18.251 16.11 18.591 15.77 19.001 15.77C19.411 15.77 19.751 16.11 19.751 16.52V19.51C19.751 19.93 19.411 20.26 19.001 20.26Z" fill="currentColor"/>
<path d="M12.0013 13.2999C11.8713 13.2999 11.7413 13.2699 11.6213 13.1999L2.79129 8.0899C2.43129 7.8799 2.3113 7.41987 2.5213 7.05987C2.7313 6.69987 3.19129 6.57985 3.54129 6.78985L11.9913 11.6799L20.3913 6.81988C20.7513 6.60988 21.2113 6.7399 21.4113 7.0899C21.6213 7.4499 21.4913 7.90987 21.1413 8.11987L12.3713 13.1999C12.2613 13.2599 12.1313 13.2999 12.0013 13.2999Z" fill="currentColor"/>
<path d="M12.001 22.36C11.591 22.36 11.251 22.02 11.251 21.61V12.54C11.251 12.13 11.591 11.79 12.001 11.79C12.411 11.79 12.751 12.13 12.751 12.54V21.61C12.751 22.02 12.411 22.36 12.001 22.36Z" fill="currentColor"/>
<path d="M12.0009 22.7499C11.1209 22.7499 10.2409 22.5599 9.56085 22.1699L4.22086 19.2099C2.77086 18.4099 1.63086 16.4799 1.63086 14.8199V9.1599C1.63086 7.4999 2.77086 5.57994 4.22086 4.76994L9.56085 1.80992C10.9209 1.03992 13.0608 1.03992 14.4308 1.80992L19.7709 4.76994C21.2209 5.56994 22.3609 7.4999 22.3609 9.1599V14.8199C22.3609 14.9199 22.3609 14.9999 22.3409 15.0999C22.2909 15.3599 22.1009 15.5799 21.8509 15.6599C21.6009 15.7499 21.3209 15.6899 21.1109 15.5199C19.9609 14.5199 18.1809 14.4799 16.9709 15.4499C16.2009 16.0599 15.7509 16.9899 15.7509 17.9799C15.7509 18.5699 15.9109 19.1499 16.2209 19.6499C16.3009 19.7899 16.3809 19.8999 16.4709 20.0099C16.6209 20.1799 16.6809 20.4099 16.6409 20.6299C16.6009 20.8499 16.4608 21.0399 16.2608 21.1499L14.4308 22.1599C13.7508 22.5599 12.8809 22.7499 12.0009 22.7499ZM12.0009 2.74992C11.3809 2.74992 10.7509 2.87993 10.3009 3.12993L4.96086 6.08995C3.99086 6.61995 3.15085 8.0599 3.15085 9.1599V14.8199C3.15085 15.9199 4.00086 17.3599 4.96086 17.8899L10.3009 20.8499C11.2109 21.3599 12.8009 21.3599 13.7109 20.8499L14.8309 20.2299C14.4609 19.5599 14.2608 18.7799 14.2608 17.9799C14.2608 16.5199 14.9108 15.1699 16.0408 14.2699C17.4008 13.1799 19.3508 12.9499 20.8708 13.5999V9.13994C20.8708 8.03994 20.0209 6.59993 19.0609 6.06993L13.7209 3.10991C13.2509 2.87991 12.6209 2.74992 12.0009 2.74992Z" fill="currentColor"/>
</svg>
