<svg viewBox="0 0 24 24" xmlns="http://www.w3.org/2000/svg">
<path d="M18.0052 20.67C17.8152 20.67 17.6252 20.6 17.4752 20.45L10.9552 13.93C9.89516 12.87 9.89516 11.13 10.9552 10.07L17.4752 3.55002C17.7652 3.26002 18.2452 3.26002 18.5352 3.55002C18.8252 3.84002 18.8252 4.32002 18.5352 4.61002L12.0152 11.13C11.5352 11.61 11.5352 12.39 12.0152 12.87L18.5352 19.39C18.8252 19.68 18.8252 20.16 18.5352 20.45C18.3852 20.59 18.1952 20.67 18.0052 20.67Z" fill="currentColor"/>
<path d="M12.0052 20.67C11.8152 20.67 11.6252 20.6 11.4752 20.45L4.95516 13.93C3.89516 12.87 3.89516 11.13 4.95516 10.07L11.4752 3.55002C11.7652 3.26002 12.2452 3.26002 12.5352 3.55002C12.8252 3.84002 12.8252 4.32002 12.5352 4.61002L6.01516 11.13C5.53516 11.61 5.53516 12.39 6.01516 12.87L12.5352 19.39C12.8252 19.68 12.8252 20.16 12.5352 20.45C12.3852 20.59 12.1952 20.67 12.0052 20.67Z" fill="currentColor"/>
</svg>
