<svg viewBox="0 0 24 24" xmlns="http://www.w3.org/2000/svg">
<path d="M11.9077 20.67C11.7177 20.67 11.5277 20.6 11.3777 20.45C11.0877 20.16 11.0877 19.68 11.3777 19.39L17.8977 12.87C18.3777 12.39 18.3777 11.61 17.8977 11.13L11.3777 4.61002C11.0877 4.32002 11.0877 3.84002 11.3777 3.55002C11.6677 3.26002 12.1477 3.26002 12.4377 3.55002L18.9577 10.07C19.4677 10.58 19.7577 11.27 19.7577 12C19.7577 12.73 19.4777 13.42 18.9577 13.93L12.4377 20.45C12.2877 20.59 12.0977 20.67 11.9077 20.67Z" fill="currentColor"/>
<path d="M5.90766 20.67C5.71766 20.67 5.52766 20.6 5.37766 20.45C5.08766 20.16 5.08766 19.68 5.37766 19.39L11.8977 12.87C12.3777 12.39 12.3777 11.61 11.8977 11.13L5.37766 4.61002C5.08766 4.32002 5.08766 3.84002 5.37766 3.55002C5.66766 3.26002 6.14766 3.26002 6.43766 3.55002L12.9577 10.07C13.4677 10.58 13.7577 11.27 13.7577 12C13.7577 12.73 13.4777 13.42 12.9577 13.93L6.43766 20.45C6.28766 20.59 6.09766 20.67 5.90766 20.67Z" fill="currentColor"/>
</svg>
