<svg viewBox="0 0 24 24" fill="none" xmlns="http://www.w3.org/2000/svg">
<path d="M15.0012 22.75C14.7312 22.75 14.4812 22.6 14.3512 22.37C14.2212 22.14 14.2212 21.85 14.3612 21.62L15.4112 19.87C15.6212 19.51 16.0812 19.4 16.4412 19.61C16.8012 19.82 16.9112 20.28 16.7012 20.64L16.4312 21.09C19.1912 20.44 21.2612 17.96 21.2612 15C21.2612 14.59 21.6012 14.25 22.0112 14.25C22.4212 14.25 22.7612 14.59 22.7612 15C22.7512 19.27 19.2712 22.75 15.0012 22.75Z" fill="currentColor"/>
<path d="M2.00098 9.75C1.59098 9.75 1.25098 9.41 1.25098 9C1.25098 4.73 4.73098 1.25 9.00098 1.25C9.27098 1.25 9.52098 1.4 9.65098 1.63C9.78098 1.86 9.78098 2.15 9.64098 2.38L8.59098 4.14C8.38098 4.49 7.92098 4.61 7.56098 4.39C7.21098 4.18 7.09098 3.72 7.31098 3.36L7.58098 2.91C4.81098 3.56 2.75098 6.04 2.75098 9C2.75098 9.41 2.41098 9.75 2.00098 9.75Z" fill="currentColor"/>
<path d="M10.6709 13.8499L7.53094 12.1599C7.20094 11.9799 6.80094 11.9799 6.47094 12.1599L3.33094 13.8499C3.10094 13.9699 2.96094 14.2199 2.96094 14.4899C2.96094 14.7599 3.10094 15.0099 3.33094 15.1299L6.47094 16.8199C6.64094 16.9099 6.82094 16.9499 7.00094 16.9499C7.18094 16.9499 7.36094 16.9099 7.53094 16.8199L10.6709 15.1299C10.9009 15.0099 11.0409 14.7599 11.0409 14.4899C11.0409 14.2199 10.8909 13.9799 10.6709 13.8499Z" fill="currentColor"/>
<path d="M5.95098 17.4101L3.03098 15.9501C2.81098 15.8401 2.55098 15.8501 2.33098 15.9801C2.13098 16.1101 2.00098 16.3401 2.00098 16.5901V19.3501C2.00098 19.8301 2.26098 20.2601 2.69098 20.4701L5.61098 21.9301C5.71098 21.9701 5.82098 22.0001 5.93098 22.0001C6.06098 22.0001 6.19098 21.9601 6.31098 21.8901C6.52098 21.7601 6.65098 21.5301 6.65098 21.2801V18.5201C6.65098 18.0501 6.38098 17.6201 5.95098 17.4101Z" fill="currentColor"/>
<path d="M11.6606 15.9801C11.4506 15.8501 11.1906 15.8401 10.9606 15.9501L8.04059 17.4101C7.61059 17.6201 7.35059 18.0501 7.35059 18.5301V21.2901C7.35059 21.5401 7.48059 21.7701 7.69059 21.9001C7.81059 21.9601 7.94059 22.0001 8.07059 22.0001C8.18059 22.0001 8.29059 21.9701 8.39059 21.9201L11.3106 20.4601C11.7406 20.2501 12.0006 19.8201 12.0006 19.3401V16.5801C12.0006 16.3401 11.8706 16.1101 11.6606 15.9801Z" fill="currentColor"/>
<path d="M20.6709 3.82988L17.5309 2.13988C17.2009 1.95988 16.8009 1.95988 16.4709 2.13988L13.3309 3.82988C13.1009 3.94988 12.9609 4.19988 12.9609 4.46988C12.9609 4.73988 13.1009 4.98988 13.3309 5.10988L16.4709 6.79988C16.6409 6.88988 16.8209 6.92988 17.0009 6.92988C17.1809 6.92988 17.3609 6.88988 17.5309 6.79988L20.6709 5.10988C20.9009 4.98988 21.0409 4.73988 21.0409 4.46988C21.0409 4.18988 20.8909 3.94988 20.6709 3.82988Z" fill="currentColor"/>
<path d="M15.951 7.37986L13.031 5.91986C12.811 5.80986 12.551 5.81986 12.331 5.94986C12.131 6.07986 12.001 6.30986 12.001 6.55986V9.31986C12.001 9.79986 12.261 10.2299 12.691 10.4399L15.611 11.8999C15.711 11.9499 15.821 11.9799 15.931 11.9799C16.061 11.9799 16.191 11.9399 16.311 11.8699C16.521 11.7399 16.651 11.5099 16.651 11.2599V8.49986C16.651 8.01986 16.381 7.58986 15.951 7.37986Z" fill="currentColor"/>
<path d="M21.6606 5.94986C21.4506 5.81986 21.1906 5.80986 20.9606 5.91986L18.0406 7.37986C17.6106 7.58986 17.3506 8.01986 17.3506 8.49986V11.2599C17.3506 11.5099 17.4806 11.7399 17.6906 11.8699C17.8106 11.9399 17.9406 11.9799 18.0706 11.9799C18.1806 11.9799 18.2906 11.9499 18.3906 11.8999L21.3106 10.4399C21.7406 10.2199 22.0006 9.78986 22.0006 9.31986V6.55986C22.0006 6.30986 21.8706 6.07986 21.6606 5.94986Z" fill="currentColor"/>
</svg>
