<svg viewBox="0 0 24 24" fill="none" xmlns="http://www.w3.org/2000/svg">
<path d="M15.0012 22.75C14.7312 22.75 14.4812 22.6 14.3512 22.37C14.2212 22.14 14.2212 21.85 14.3612 21.62L15.4112 19.87C15.6212 19.51 16.0812 19.4 16.4412 19.61C16.8012 19.82 16.9112 20.28 16.7012 20.64L16.4312 21.09C19.1912 20.44 21.2612 17.96 21.2612 15C21.2612 14.59 21.6012 14.25 22.0112 14.25C22.4212 14.25 22.7612 14.59 22.7612 15C22.7512 19.27 19.2712 22.75 15.0012 22.75Z" fill="currentColor"/>
<path d="M2.00098 9.75C1.59098 9.75 1.25098 9.41 1.25098 9C1.25098 4.73 4.73098 1.25 9.00098 1.25C9.27098 1.25 9.52097 1.4 9.65097 1.63C9.78097 1.86 9.78098 2.15 9.64098 2.38L8.59097 4.13C8.38097 4.49001 7.92097 4.60001 7.56097 4.39001C7.20097 4.18001 7.09098 3.71999 7.30098 3.35999L7.57098 2.90997C4.81098 3.55997 2.74098 6.04 2.74098 9C2.75098 9.41 2.41098 9.75 2.00098 9.75Z" fill="currentColor"/>
<path d="M17.6804 7.49963C17.5504 7.49963 17.4204 7.46965 17.3004 7.39965L13.3304 5.09961C12.9704 4.88961 12.8504 4.42964 13.0604 4.06964C13.2704 3.70964 13.7304 3.58962 14.0804 3.79962L17.6804 5.87963L21.2504 3.80963C21.6104 3.59963 22.0704 3.72965 22.2704 4.07965C22.4804 4.43965 22.3504 4.89961 22.0004 5.10961L18.0504 7.38964C17.9404 7.45964 17.8104 7.49963 17.6804 7.49963Z" fill="currentColor"/>
<path d="M17.6816 11.5698C17.2716 11.5698 16.9316 11.2298 16.9316 10.8198V6.73975C16.9316 6.32975 17.2716 5.98975 17.6816 5.98975C18.0916 5.98975 18.4316 6.32975 18.4316 6.73975V10.8198C18.4316 11.2398 18.0916 11.5698 17.6816 11.5698Z" fill="currentColor"/>
<path d="M17.6813 11.7502C17.2213 11.7502 16.7513 11.6502 16.3813 11.4402L13.9813 10.1102C13.2013 9.68017 12.6113 8.67022 12.6113 7.78022V5.24018C12.6113 4.34018 13.2013 3.34021 13.9913 2.90021L16.3913 1.5702C17.1313 1.1602 18.2413 1.1602 18.9913 1.5702L21.3913 2.90021C22.1713 3.33021 22.7613 4.34017 22.7613 5.23017V7.77021C22.7613 8.67021 22.1713 9.67016 21.3913 10.1002L18.9913 11.4302C18.6013 11.6502 18.1413 11.7502 17.6813 11.7502ZM17.1113 2.87018L14.7113 4.2002C14.4113 4.3702 14.1113 4.88016 14.1113 5.22016V7.7602C14.1113 8.1102 14.4113 8.62022 14.7113 8.78022L17.1113 10.1202C17.4013 10.2802 17.9613 10.2802 18.2513 10.1202L20.6513 8.79017C20.9513 8.62017 21.2513 8.11021 21.2513 7.77021V5.23017C21.2513 4.88017 20.9513 4.37021 20.6513 4.21021L18.2513 2.88019C17.9613 2.71019 17.3913 2.71018 17.1113 2.87018Z" fill="currentColor"/>
<path d="M6.321 18.4996C6.191 18.4996 6.06099 18.4697 5.94099 18.3997L1.97099 16.0996C1.61099 15.8896 1.49099 15.4296 1.70099 15.0696C1.91099 14.7096 2.37099 14.5896 2.72099 14.7996L6.321 16.8796L9.89099 14.8096C10.251 14.5996 10.711 14.7296 10.911 15.0796C11.121 15.4396 10.991 15.8996 10.641 16.1096L6.69099 18.3896C6.58099 18.4596 6.451 18.4996 6.321 18.4996Z" fill="currentColor"/>
<path d="M6.32031 22.5698C5.91031 22.5698 5.57031 22.2298 5.57031 21.8198V17.7397C5.57031 17.3297 5.91031 16.9897 6.32031 16.9897C6.73031 16.9897 7.07031 17.3297 7.07031 17.7397V21.8198C7.07031 22.2398 6.74031 22.5698 6.32031 22.5698Z" fill="currentColor"/>
<path d="M6.32098 22.7499C5.86098 22.7499 5.39098 22.6499 5.02098 22.4399L2.62097 21.1099C1.84097 20.6799 1.25098 19.67 1.25098 18.78V16.2399C1.25098 15.3399 1.84097 14.3399 2.62097 13.9099L5.02098 12.58C5.76098 12.17 6.88097 12.17 7.62097 12.58L10.021 13.9099C10.801 14.3399 11.391 15.3499 11.391 16.2399V18.78C11.391 19.68 10.801 20.6799 10.011 21.1199L7.61098 22.45C7.25098 22.65 6.79098 22.7499 6.32098 22.7499ZM5.75098 13.8699L3.35098 15.2C3.05098 15.37 2.75098 15.8799 2.75098 16.2199V18.76C2.75098 19.11 3.05098 19.62 3.35098 19.78L5.75098 21.1099C6.04098 21.2699 6.60098 21.2699 6.89098 21.1099L9.29097 19.78C9.59097 19.61 9.89098 19.1 9.89098 18.76V16.2199C9.89098 15.8699 9.59097 15.36 9.29097 15.2L6.89098 13.8599C6.61098 13.7099 6.04098 13.7099 5.75098 13.8699Z" fill="currentColor"/>
</svg>
