<svg width="24" height="24" viewBox="0 0 24 24" fill="none" xmlns="http://www.w3.org/2000/svg">
<path d="M21.0169 7.99175C21.4148 8.55833 20.9405 9.25 20.2482 9.25H3C2.44772 9.25 2 8.80228 2 8.25V6.42C2 3.98 3.98 2 6.42 2H8.74C10.37 2 10.88 2.53 11.53 3.4L12.93 5.26C13.24 5.67 13.28 5.72 13.86 5.72H16.65C18.4546 5.72 20.0516 6.61709 21.0169 7.99175Z" fill="#292D32"/>
<path d="M21.9834 11.7461C21.9815 11.1952 21.5343 10.7495 20.9834 10.7495L2.99998 10.7498C2.44771 10.7498 2 11.1976 2 11.7498V16.6499C2 19.5999 4.4 21.9999 7.35 21.9999H16.65C19.6 21.9999 22 19.5999 22 16.6499L21.9834 11.7461ZM14.34 18.2799C14.19 18.4199 14 18.4999 13.81 18.4999C13.62 18.4999 13.42 18.4199 13.28 18.2799L12.04 17.0399L10.76 18.3199C10.62 18.4599 10.42 18.5399 10.23 18.5399C10.04 18.5399 9.85 18.4599 9.7 18.3199C9.41 18.0299 9.41 17.5499 9.7 17.2599L10.98 15.9799L9.74 14.7399C9.45 14.4499 9.45 13.9699 9.74 13.6799C10.04 13.3899 10.51 13.3899 10.8 13.6799L12.04 14.9199L13.24 13.7199C13.53 13.4299 14 13.4299 14.3 13.7199C14.59 14.0199 14.59 14.4899 14.3 14.7799L13.1 15.9799L14.34 17.2199C14.63 17.5099 14.63 17.9899 14.34 18.2799Z" fill="#292D32"/>
</svg>
