<svg viewBox="0 0 24 24" xmlns="http://www.w3.org/2000/svg">
<path d="M14.4301 15.2998H9.43005C9.02005 15.2998 8.68005 14.9598 8.68005 14.5498C8.68005 14.1398 9.02005 13.7998 9.43005 13.7998H14.4301C14.8401 13.7998 15.1801 14.1398 15.1801 14.5498C15.1801 14.9598 14.8401 15.2998 14.4301 15.2998Z" fill="currentColor"/>
<path d="M17 22.75H7C2.59 22.75 1.25 21.41 1.25 17V7C1.25 2.59 2.59 1.25 7 1.25H8.5C10.25 1.25 10.8 1.82 11.5 2.75L13 4.75C13.33 5.19 13.38 5.25 14 5.25H17C21.41 5.25 22.75 6.59 22.75 11V17C22.75 21.41 21.41 22.75 17 22.75ZM7 2.75C3.42 2.75 2.75 3.43 2.75 7V17C2.75 20.57 3.42 21.25 7 21.25H17C20.58 21.25 21.25 20.57 21.25 17V11C21.25 7.43 20.58 6.75 17 6.75H14C12.72 6.75 12.3 6.31 11.8 5.65L10.3 3.65C9.78 2.96 9.62 2.75 8.5 2.75H7Z" fill="currentColor"/>
</svg>
