<svg viewBox="0 0 24 24" xmlns="http://www.w3.org/2000/svg">
<path d="M12 17.8802C11.75 17.8802 11.49 17.7902 11.29 17.6102L8.70995 15.3502C7.73995 14.5002 7.60995 13.0402 8.41995 12.0302C9.23995 11.0102 10.7 10.8202 11.75 11.6102L12 11.8002L12.26 11.6002C13.31 10.8102 14.77 11.0002 15.59 12.0202C16.4 13.0302 16.27 14.4902 15.3 15.3402L12.72 17.6002C12.51 17.7902 12.25 17.8802 12 17.8802ZM9.68995 14.2202L12 16.2402L14.31 14.2202C14.68 13.9002 14.73 13.3502 14.42 12.9702C14.11 12.5802 13.56 12.5102 13.16 12.8102L12.45 13.3402C12.18 13.5402 11.82 13.5402 11.55 13.3402L10.84 12.8102C10.45 12.5102 9.88995 12.5802 9.57995 12.9702C9.27995 13.3502 9.32995 13.9002 9.68995 14.2202Z" fill="currentColor"/>
<path d="M17 22.75H7C2.59 22.75 1.25 21.41 1.25 17V7C1.25 2.59 2.59 1.25 7 1.25H8.5C10.25 1.25 10.8 1.82 11.5 2.75L13 4.75C13.33 5.19 13.38 5.25 14 5.25H17C21.41 5.25 22.75 6.59 22.75 11V17C22.75 21.41 21.41 22.75 17 22.75ZM7 2.75C3.42 2.75 2.75 3.43 2.75 7V17C2.75 20.57 3.42 21.25 7 21.25H17C20.58 21.25 21.25 20.57 21.25 17V11C21.25 7.43 20.58 6.75 17 6.75H14C12.72 6.75 12.3 6.31 11.8 5.65L10.3 3.65C9.78 2.96 9.62 2.75 8.5 2.75H7Z" fill="currentColor"/>
</svg>
