<svg viewBox="0 0 24 24" xmlns="http://www.w3.org/2000/svg">
<path d="M13.81 16.4799C13.62 16.4799 13.43 16.4099 13.28 16.2599L9.73996 12.7199C9.44996 12.4299 9.44996 11.9499 9.73996 11.6599C10.03 11.3699 10.51 11.3699 10.8 11.6599L14.34 15.1999C14.63 15.4899 14.63 15.9699 14.34 16.2599C14.19 16.3999 14 16.4799 13.81 16.4799Z" fill="currentColor"/>
<path d="M10.23 16.5199C10.04 16.5199 9.85004 16.4499 9.70004 16.2999C9.41004 16.0099 9.41004 15.5299 9.70004 15.2399L13.24 11.6999C13.53 11.4099 14.01 11.4099 14.3 11.6999C14.59 11.9899 14.59 12.4699 14.3 12.7599L10.76 16.2999C10.62 16.4399 10.42 16.5199 10.23 16.5199Z" fill="currentColor"/>
<path d="M17 22.75H7C2.59 22.75 1.25 21.41 1.25 17V7C1.25 2.59 2.59 1.25 7 1.25H8.5C10.25 1.25 10.8 1.82 11.5 2.75L13 4.75C13.33 5.19 13.38 5.25 14 5.25H17C21.41 5.25 22.75 6.59 22.75 11V17C22.75 21.41 21.41 22.75 17 22.75ZM7 2.75C3.43 2.75 2.75 3.43 2.75 7V17C2.75 20.57 3.43 21.25 7 21.25H17C20.57 21.25 21.25 20.57 21.25 17V11C21.25 7.43 20.57 6.75 17 6.75H14C12.72 6.75 12.3 6.31 11.8 5.65L10.3 3.65C9.78 2.96 9.63 2.75 8.5 2.75H7V2.75Z" fill="currentColor"/>
</svg>
