<svg viewBox="0 0 24 24" xmlns="http://www.w3.org/2000/svg">
<path d="M21.7699 2.23C21.4699 1.93 20.9799 1.93 20.6799 2.23L2.22988 20.69C1.92988 20.99 1.92988 21.48 2.22988 21.78C2.37988 21.92 2.56988 22 2.76988 22C2.96988 22 3.15988 21.92 3.30988 21.77L21.7699 3.31C22.0799 3.01 22.0799 2.53 21.7699 2.23Z" fill="currentColor"/>
<path d="M9.00012 10.38C10.3146 10.38 11.3801 9.31443 11.3801 8C11.3801 6.68556 10.3146 5.62 9.00012 5.62C7.68568 5.62 6.62012 6.68556 6.62012 8C6.62012 9.31443 7.68568 10.38 9.00012 10.38Z" fill="currentColor"/>
<path d="M21.6099 5.39001L20.3899 6.61001C20.4699 6.98001 20.4999 7.38001 20.4999 7.81001V12.61L20.3699 12.5C19.5899 11.83 18.3299 11.83 17.5499 12.5L13.3899 16.07C12.6799 16.68 11.5599 16.74 10.7799 16.22L5.3999 21.6C5.4399 21.62 5.4799 21.63 5.5199 21.64C5.7899 21.73 6.0599 21.8 6.3499 21.86C6.4499 21.88 6.5499 21.9 6.6599 21.91C7.0299 21.96 7.4099 22 7.8099 22H16.1899C19.8299 22 21.9999 19.83 21.9999 16.19V7.81001C21.9999 6.91001 21.8699 6.10001 21.6099 5.39001Z" fill="currentColor"/>
<path d="M21.6101 5.39001L20.3901 6.61001C20.4701 6.98001 20.5001 7.38001 20.5001 7.81001V12.61L20.3701 12.5C19.5901 11.83 18.3301 11.83 17.5501 12.5L13.3901 16.07C12.6801 16.68 11.5601 16.74 10.7801 16.22L5.39014 21.61C6.10014 21.87 6.91014 22 7.81014 22H16.1901C19.8301 22 22.0001 19.83 22.0001 16.19V7.81001C22.0001 6.91001 21.8701 6.10001 21.6101 5.39001Z" fill="currentColor"/>
<path d="M20.46 3.54L19.4 4.6C18.68 3.87 17.6 3.5 16.19 3.5H7.81C4.99 3.5 3.5 4.99 3.5 7.81V16.19C3.5 16.95 3.63 17.6 3.85 18.16L7.59 15.65C7.93 15.42 8.32 15.3 8.71 15.29L3.54 20.46C3.14 20.06 2.81 19.58 2.56 19.03C2.19 18.23 2 17.28 2 16.19V7.81C2 4.17 4.17 2 7.81 2H16.19C18.01 2 19.46 2.54 20.46 3.54Z" fill="currentColor"/>
</svg>
