<svg width="24" height="24" viewBox="0 0 24 24" fill="none" xmlns="http://www.w3.org/2000/svg">
<path d="M9 10.75C7.48 10.75 6.25 9.52 6.25 8C6.25 6.48 7.48 5.25 9 5.25C10.52 5.25 11.75 6.48 11.75 8C11.75 9.52 10.52 10.75 9 10.75ZM9 6.75C8.31 6.75 7.75 7.31 7.75 8C7.75 8.69 8.31 9.25 9 9.25C9.69 9.25 10.25 8.69 10.25 8C10.25 7.31 9.69 6.75 9 6.75Z" fill="#292D32"/>
<path d="M15 22.75H9C3.57 22.75 1.25 20.43 1.25 15V9C1.25 3.57 3.57 1.25 9 1.25H13C13.41 1.25 13.75 1.59 13.75 2C13.75 2.41 13.41 2.75 13 2.75H9C4.39 2.75 2.75 4.39 2.75 9V15C2.75 19.61 4.39 21.25 9 21.25H15C19.61 21.25 21.25 19.61 21.25 15V10C21.25 9.59 21.59 9.25 22 9.25C22.41 9.25 22.75 9.59 22.75 10V15C22.75 20.43 20.43 22.75 15 22.75Z" fill="#292D32"/>
<path d="M16.56 7.68999C16.37 7.68999 16.18 7.61999 16.03 7.46999C15.74 7.17999 15.74 6.69999 16.03 6.40999L19.92 2.51999C20.21 2.22999 20.69 2.22999 20.98 2.51999C21.27 2.80999 21.27 3.28999 20.98 3.57999L17.09 7.46999C16.94 7.61999 16.75 7.68999 16.56 7.68999Z" fill="#292D32"/>
<path d="M20.4402 7.68999C20.2502 7.68999 20.0602 7.61999 19.9102 7.46999L16.0202 3.57999C15.7302 3.28999 15.7302 2.80999 16.0202 2.51999C16.3102 2.22999 16.7902 2.22999 17.0802 2.51999L20.9702 6.40999C21.2602 6.69999 21.2602 7.17999 20.9702 7.46999C20.8302 7.61999 20.6402 7.68999 20.4402 7.68999Z" fill="#292D32"/>
<path d="M2.6698 19.7C2.4298 19.7 2.1898 19.58 2.0498 19.37C1.8198 19.03 1.9098 18.56 2.2498 18.33L7.1798 15.02C8.2598 14.3 9.7498 14.38 10.7298 15.21L11.0598 15.5C11.5598 15.93 12.4098 15.93 12.8998 15.5L17.0598 11.93C18.1198 11.02 19.7898 11.02 20.8598 11.93L22.4898 13.33C22.7998 13.6 22.8398 14.07 22.5698 14.39C22.2998 14.7 21.8298 14.74 21.5098 14.47L19.8798 13.07C19.3798 12.64 18.5298 12.64 18.0398 13.07L13.8798 16.64C12.8198 17.55 11.1498 17.55 10.0798 16.64L9.7498 16.35C9.2898 15.96 8.52981 15.92 8.01981 16.27L3.0998 19.58C2.9598 19.66 2.8098 19.7 2.6698 19.7Z" fill="#292D32"/>
</svg>
