<svg width="24" height="24" viewBox="0 0 24 24" fill="none" xmlns="http://www.w3.org/2000/svg">
<path d="M9 10.75C7.48 10.75 6.25 9.52 6.25 8C6.25 6.48 7.48 5.25 9 5.25C10.52 5.25 11.75 6.48 11.75 8C11.75 9.52 10.52 10.75 9 10.75ZM9 6.75C8.31 6.75 7.75 7.31 7.75 8C7.75 8.69 8.31 9.25 9 9.25C9.69 9.25 10.25 8.69 10.25 8C10.25 7.31 9.69 6.75 9 6.75Z" fill="#292D32"/>
<path d="M15 22.75H9C3.57 22.75 1.25 20.43 1.25 15V9C1.25 3.57 3.57 1.25 9 1.25H13C13.41 1.25 13.75 1.59 13.75 2C13.75 2.41 13.41 2.75 13 2.75H9C4.39 2.75 2.75 4.39 2.75 9V15C2.75 19.61 4.39 21.25 9 21.25H15C19.61 21.25 21.25 19.61 21.25 15V10C21.25 9.59 21.59 9.25 22 9.25C22.41 9.25 22.75 9.59 22.75 10V15C22.75 20.43 20.43 22.75 15 22.75Z" fill="#292D32"/>
<path d="M15.6699 9.75C15.2799 9.75 14.9199 9.61 14.6599 9.34C14.3499 9.03 14.1999 8.57 14.2699 8.1L14.4699 6.71C14.5199 6.36 14.7299 5.93 14.9899 5.68L18.6199 2.05C20.0699 0.6 21.3299 1.43 21.9499 2.05C22.5399 2.64 22.8099 3.26 22.7499 3.9C22.6999 4.41 22.4399 4.9 21.9499 5.38L18.3199 9.01C18.0699 9.26 17.6399 9.47 17.2899 9.53L15.8999 9.73C15.8199 9.75 15.7399 9.75 15.6699 9.75ZM19.6699 3.12L16.0399 6.75C16.0099 6.78 15.9599 6.89 15.9499 6.94L15.7599 8.24L17.0699 8.06C17.1099 8.05 17.2199 8 17.2599 7.96L20.8899 4.33C21.1099 4.11 21.2399 3.91 21.2499 3.76C21.2699 3.55 21.0599 3.29 20.8899 3.12C20.3699 2.6 20.1299 2.66 19.6699 3.12Z" fill="#292D32"/>
<path d="M20.8998 6.13001C20.8298 6.13001 20.7598 6.12001 20.6998 6.10001C19.3598 5.72001 18.2898 4.65001 17.9098 3.31001C17.7998 2.91001 18.0298 2.50001 18.4298 2.39001C18.8298 2.28001 19.2398 2.51001 19.3498 2.91001C19.5898 3.75001 20.2598 4.43001 21.1098 4.67001C21.5098 4.78001 21.7398 5.20001 21.6298 5.59001C21.5198 5.91001 21.2198 6.13001 20.8998 6.13001Z" fill="#292D32"/>
<path d="M2.6698 19.7C2.4298 19.7 2.1898 19.58 2.0498 19.37C1.8198 19.03 1.9098 18.56 2.2498 18.33L7.1798 15.02C8.2598 14.3 9.7498 14.38 10.7298 15.21L11.0598 15.5C11.5598 15.93 12.4098 15.93 12.8998 15.5L17.0598 11.93C18.1198 11.02 19.7898 11.02 20.8598 11.93L22.4898 13.33C22.7998 13.6 22.8398 14.07 22.5698 14.39C22.2998 14.7 21.8298 14.74 21.5098 14.47L19.8798 13.07C19.3798 12.64 18.5298 12.64 18.0398 13.07L13.8798 16.64C12.8198 17.55 11.1498 17.55 10.0798 16.64L9.7498 16.35C9.2898 15.96 8.52981 15.92 8.01981 16.27L3.0998 19.58C2.9598 19.66 2.8098 19.7 2.6698 19.7Z" fill="#292D32"/>
</svg>
