<svg width="24" height="24" viewBox="0 0 24 24" fill="none" xmlns="http://www.w3.org/2000/svg">
<path d="M3.38 20.85C3.17 20.85 2.95 20.76 2.81 20.58C1.74 19.33 1.25 17.55 1.25 15V9C1.25 3.57 3.57 1.25 9 1.25H15C17.39 1.25 19.14 1.7 20.38 2.63C20.71 2.88 20.78 3.35 20.53 3.68C20.28 4.01 19.81 4.08 19.48 3.83C18.51 3.1 17.05 2.75 15 2.75H9C4.39 2.75 2.75 4.39 2.75 9V15C2.75 17.15 3.14 18.66 3.95 19.62C4.22 19.94 4.18 20.41 3.86 20.68C3.72 20.79 3.55 20.85 3.38 20.85Z" fill="#292D32"/>
<path d="M15 22.75H9.00001C8.21001 22.75 7.50001 22.7 6.85001 22.61C6.44001 22.55 6.16001 22.17 6.22001 21.76C6.28001 21.35 6.67001 21.07 7.07001 21.13C7.64001 21.21 8.29001 21.26 9.00001 21.26H15C19.61 21.26 21.25 19.62 21.25 15.01V8.99999C21.25 8.66999 21.24 8.33999 21.22 8.03999C21.19 7.62999 21.51 7.26999 21.92 7.23999C22.35 7.21999 22.69 7.52999 22.72 7.93999C22.74 8.27999 22.75 8.62999 22.75 8.99999V15C22.75 20.43 20.43 22.75 15 22.75Z" fill="#292D32"/>
<path d="M8 10.75C6.48 10.75 5.25 9.52 5.25 8C5.25 6.48 6.48 5.25 8 5.25C9.52 5.25 10.75 6.48 10.75 8C10.75 9.52 9.52 10.75 8 10.75ZM8 6.75C7.31 6.75 6.75 7.31 6.75 8C6.75 8.69 7.31 9.25 8 9.25C8.69 9.25 9.25 8.69 9.25 8C9.25 7.31 8.69 6.75 8 6.75Z" fill="#292D32"/>
<path d="M1.99994 22.75C1.80994 22.75 1.61994 22.68 1.46994 22.53C1.17994 22.24 1.17994 21.76 1.46994 21.47L21.4699 1.47C21.7599 1.18 22.2399 1.18 22.5299 1.47C22.8199 1.76 22.8199 2.24 22.5299 2.53L2.52994 22.53C2.37994 22.68 2.18994 22.75 1.99994 22.75Z" fill="#292D32"/>
<path d="M11.9799 17.43C11.5899 17.43 11.1999 17.28 10.9099 16.99C10.6199 16.7 10.6199 16.22 10.9099 15.93C11.1999 15.64 11.6799 15.64 11.9699 15.93C11.9799 15.94 11.9899 15.94 11.9999 15.93L17.0299 10.89C18.0699 9.84999 19.8799 9.84999 20.9099 10.89L22.5399 12.52C22.8299 12.81 22.8299 13.29 22.5399 13.58C22.2499 13.87 21.7699 13.87 21.4799 13.58L19.8499 11.95C19.3799 11.48 18.5599 11.48 18.0899 11.95L13.0599 16.99C12.7599 17.28 12.3699 17.43 11.9799 17.43Z" fill="#292D32"/>
</svg>
