<svg width="24" height="24" viewBox="0 0 24 24" fill="none" xmlns="http://www.w3.org/2000/svg">
<path d="M9 10.75C7.48 10.75 6.25 9.52 6.25 8C6.25 6.48 7.48 5.25 9 5.25C10.52 5.25 11.75 6.48 11.75 8C11.75 9.52 10.52 10.75 9 10.75ZM9 6.75C8.31 6.75 7.75 7.31 7.75 8C7.75 8.69 8.31 9.25 9 9.25C9.69 9.25 10.25 8.69 10.25 8C10.25 7.31 9.69 6.75 9 6.75Z" fill="#292D32"/>
<path d="M15 22.75H9C3.57 22.75 1.25 20.43 1.25 15V9C1.25 3.57 3.57 1.25 9 1.25H13C13.41 1.25 13.75 1.59 13.75 2C13.75 2.41 13.41 2.75 13 2.75H9C4.39 2.75 2.75 4.39 2.75 9V15C2.75 19.61 4.39 21.25 9 21.25H15C19.61 21.25 21.25 19.61 21.25 15V10C21.25 9.59 21.59 9.25 22 9.25C22.41 9.25 22.75 9.59 22.75 10V15C22.75 20.43 20.43 22.75 15 22.75Z" fill="#292D32"/>
<path d="M18 8.75C17.59 8.75 17.25 8.41 17.25 8V2C17.25 1.7 17.43 1.42 17.71 1.31C17.99 1.2 18.31 1.26 18.53 1.47L20.53 3.47C20.82 3.76 20.82 4.24 20.53 4.53C20.24 4.82 19.76 4.82 19.47 4.53L18.75 3.81V8C18.75 8.41 18.41 8.75 18 8.75Z" fill="#292D32"/>
<path d="M15.9999 4.75C15.8099 4.75 15.6199 4.68 15.4699 4.53C15.1799 4.24 15.1799 3.76 15.4699 3.47L17.4699 1.47C17.7599 1.18 18.2399 1.18 18.5299 1.47C18.8199 1.76 18.8199 2.24 18.5299 2.53L16.5299 4.53C16.3799 4.68 16.1899 4.75 15.9999 4.75Z" fill="#292D32"/>
<path d="M2.6698 19.7C2.4298 19.7 2.1898 19.58 2.0498 19.37C1.8198 19.03 1.9098 18.56 2.2498 18.33L7.1798 15.02C8.2598 14.3 9.7498 14.38 10.7298 15.21L11.0598 15.5C11.5598 15.93 12.4098 15.93 12.8998 15.5L17.0598 11.93C18.1198 11.02 19.7898 11.02 20.8598 11.93L22.4898 13.33C22.7998 13.6 22.8398 14.07 22.5698 14.39C22.2998 14.7 21.8198 14.74 21.5098 14.47L19.8798 13.07C19.3798 12.64 18.5398 12.64 18.0398 13.07L13.8798 16.64C12.8198 17.55 11.1498 17.55 10.0798 16.64L9.7498 16.35C9.2898 15.96 8.52981 15.92 8.01981 16.27L3.0998 19.58C2.9598 19.66 2.8098 19.7 2.6698 19.7Z" fill="#292D32"/>
</svg>
