<svg viewBox="0 0 24 24" fill="none" xmlns="http://www.w3.org/2000/svg">
<path d="M7.65006 20.9098C7.62006 20.9098 7.58006 20.9298 7.55006 20.9298C5.61006 19.9698 4.03006 18.3798 3.06006 16.4398C3.06006 16.4098 3.08006 16.3698 3.08006 16.3398C4.30006 16.6998 5.56006 16.9698 6.81006 17.1798C7.03006 18.4398 7.29006 19.6898 7.65006 20.9098Z" fill="currentColor"/>
<path d="M20.94 16.4498C19.95 18.4398 18.3 20.0498 16.29 21.0198C16.67 19.7498 16.99 18.4698 17.2 17.1798C18.46 16.9698 19.7 16.6998 20.92 16.3398C20.91 16.3798 20.94 16.4198 20.94 16.4498Z" fill="currentColor"/>
<path d="M21.02 7.70998C19.76 7.32998 18.49 7.01998 17.2 6.79998C16.99 5.50998 16.68 4.22998 16.29 2.97998C18.36 3.96998 20.03 5.63998 21.02 7.70998Z" fill="currentColor"/>
<path d="M7.64998 3.09006C7.28998 4.31006 7.02998 5.55006 6.81998 6.81006C5.52998 7.01006 4.24998 7.33006 2.97998 7.71006C3.94998 5.70006 5.55998 4.05006 7.54998 3.06006C7.57998 3.06006 7.61998 3.09006 7.64998 3.09006Z" fill="currentColor"/>
<path d="M15.49 6.59C13.17 6.33 10.83 6.33 8.51001 6.59C8.76001 5.22 9.08001 3.85 9.53001 2.53C9.55001 2.45 9.54001 2.39 9.55001 2.31C10.34 2.12 11.15 2 12 2C12.84 2 13.66 2.12 14.44 2.31C14.45 2.39 14.45 2.45 14.47 2.53C14.92 3.86 15.24 5.22 15.49 6.59Z" fill="currentColor"/>
<path d="M6.59 15.4898C5.21 15.2398 3.85 14.9198 2.53 14.4698C2.45 14.4498 2.39 14.4598 2.31 14.4498C2.12 13.6598 2 12.8498 2 11.9998C2 11.1598 2.12 10.3398 2.31 9.55977C2.39 9.54977 2.45 9.54977 2.53 9.52977C3.86 9.08977 5.21 8.75977 6.59 8.50977C6.34 10.8298 6.34 13.1698 6.59 15.4898Z" fill="currentColor"/>
<path d="M21.9999 11.9998C21.9999 12.8498 21.8799 13.6598 21.6899 14.4498C21.6099 14.4598 21.5499 14.4498 21.4699 14.4698C20.1399 14.9098 18.7799 15.2398 17.4099 15.4898C17.6699 13.1698 17.6699 10.8298 17.4099 8.50977C18.7799 8.75977 20.1499 9.07977 21.4699 9.52977C21.5499 9.54977 21.6099 9.55977 21.6899 9.55977C21.8799 10.3498 21.9999 11.1598 21.9999 11.9998Z" fill="currentColor"/>
<path d="M15.49 17.4102C15.24 18.7902 14.92 20.1502 14.47 21.4702C14.45 21.5502 14.45 21.6102 14.44 21.6902C13.66 21.8802 12.84 22.0002 12 22.0002C11.15 22.0002 10.34 21.8802 9.55001 21.6902C9.54001 21.6102 9.55001 21.5502 9.53001 21.4702C9.09001 20.1402 8.76001 18.7902 8.51001 17.4102C9.67001 17.5402 10.83 17.6302 12 17.6302C13.17 17.6302 14.34 17.5402 15.49 17.4102Z" fill="currentColor"/>
<path d="M15.7633 15.7633C13.2622 16.0789 10.7378 16.0789 8.23667 15.7633C7.92111 13.2622 7.92111 10.7378 8.23667 8.23667C10.7378 7.92111 13.2622 7.92111 15.7633 8.23667C16.0789 10.7378 16.0789 13.2622 15.7633 15.7633Z" fill="currentColor"/>
</svg>
