<svg viewBox="0 0 24 24" fill="none" xmlns="http://www.w3.org/2000/svg">
<path d="M8.00033 21.75C7.97033 21.75 7.94033 21.75 7.92033 21.75C7.51033 21.7 7.21033 21.33 7.26033 20.92L9.26033 2.92003C9.31033 2.51003 9.68033 2.22003 10.0903 2.26003C10.5003 2.31003 10.8003 2.68003 10.7503 3.09003L8.75033 21.09C8.70033 21.47 8.38033 21.75 8.00033 21.75Z" fill="currentColor"/>
<path d="M14.0003 21.75C13.9703 21.75 13.9403 21.75 13.9203 21.75C13.5103 21.7 13.2103 21.33 13.2603 20.92L15.2603 2.92003C15.3103 2.51003 15.6703 2.22003 16.0903 2.26003C16.5003 2.31003 16.8003 2.68003 16.7503 3.09003L14.7503 21.09C14.7003 21.47 14.3803 21.75 14.0003 21.75Z" fill="currentColor"/>
<path d="M21.5 9.75H3.5C3.09 9.75 2.75 9.41 2.75 9C2.75 8.59 3.09 8.25 3.5 8.25H21.5C21.91 8.25 22.25 8.59 22.25 9C22.25 9.41 21.91 9.75 21.5 9.75Z" fill="currentColor"/>
<path d="M20.5 15.75H2.5C2.09 15.75 1.75 15.41 1.75 15C1.75 14.59 2.09 14.25 2.5 14.25H20.5C20.91 14.25 21.25 14.59 21.25 15C21.25 15.41 20.91 15.75 20.5 15.75Z" fill="currentColor"/>
</svg>
