<svg viewBox="0 0 24 24" fill="none" xmlns="http://www.w3.org/2000/svg">
<path d="M14 22.75H9C3.57 22.75 1.25 20.43 1.25 15V9C1.25 3.57 3.57 1.25 9 1.25H15C20.43 1.25 22.75 3.57 22.75 9V13C22.75 13.41 22.41 13.75 22 13.75C21.59 13.75 21.25 13.41 21.25 13V9C21.25 4.39 19.61 2.75 15 2.75H9C4.39 2.75 2.75 4.39 2.75 9V15C2.75 19.61 4.39 21.25 9 21.25H14C14.41 21.25 14.75 21.59 14.75 22C14.75 22.41 14.41 22.75 14 22.75Z" fill="currentColor"/>
<path d="M19 22.75C18.9 22.75 18.81 22.73 18.71 22.69C18.43 22.57 18.25 22.3 18.25 22V16C18.25 15.59 18.59 15.25 19 15.25C19.41 15.25 19.75 15.59 19.75 16V20.19L20.47 19.47C20.76 19.18 21.24 19.18 21.53 19.47C21.82 19.76 21.82 20.24 21.53 20.53L19.53 22.53C19.39 22.67 19.19 22.75 19 22.75Z" fill="currentColor"/>
<path d="M19.0004 22.7499C18.8104 22.7499 18.6204 22.6799 18.4704 22.5299L16.4704 20.5299C16.1804 20.2399 16.1804 19.7599 16.4704 19.4699C16.7604 19.1799 17.2404 19.1799 17.5304 19.4699L19.5304 21.4699C19.8204 21.7599 19.8204 22.2399 19.5304 22.5299C19.3804 22.6799 19.1904 22.7499 19.0004 22.7499Z" fill="currentColor"/>
<path d="M8.89974 16.4901C8.86974 16.4901 8.83974 16.4901 8.81974 16.4901C8.40974 16.4401 8.10974 16.0701 8.15974 15.6601L9.19974 6.1801C9.24974 5.7701 9.60974 5.4701 10.0297 5.5201C10.4397 5.5701 10.7397 5.9401 10.6897 6.3501L9.63975 15.8201C9.59975 16.2001 9.26974 16.4901 8.89974 16.4901Z" fill="currentColor"/>
<path d="M12.0501 16.4901C12.0201 16.4901 11.9901 16.4901 11.9701 16.4901C11.5601 16.4401 11.2601 16.0701 11.3101 15.6601L12.3601 6.19011C12.4101 5.78011 12.7801 5.48011 13.1901 5.53011C13.6001 5.58011 13.9001 5.95011 13.8501 6.36011L12.8001 15.8301C12.7601 16.2001 12.4301 16.4901 12.0501 16.4901Z" fill="currentColor"/>
<path d="M16.0003 10.1699H6.53027C6.12027 10.1699 5.78027 9.82992 5.78027 9.41992C5.78027 9.00992 6.12027 8.66992 6.53027 8.66992H16.0003C16.4103 8.66992 16.7503 9.00992 16.7503 9.41992C16.7503 9.82992 16.4103 10.1699 16.0003 10.1699Z" fill="currentColor"/>
<path d="M15.47 13.3301H6C5.59 13.3301 5.25 12.9901 5.25 12.5801C5.25 12.1701 5.59 11.8301 6 11.8301H15.47C15.88 11.8301 16.22 12.1701 16.22 12.5801C16.22 12.9901 15.89 13.3301 15.47 13.3301Z" fill="currentColor"/>
</svg>
