<svg width="24" height="24" viewBox="0 0 24 24" fill="none" xmlns="http://www.w3.org/2000/svg">
<path d="M15.2395 22.27H15.1095C10.6695 22.27 8.52953 20.52 8.15953 16.6C8.11953 16.19 8.41953 15.82 8.83953 15.78C9.24953 15.74 9.61953 16.05 9.65953 16.46C9.94953 19.6 11.4295 20.77 15.1195 20.77H15.2495C19.3195 20.77 20.7595 19.33 20.7595 15.26V8.73998C20.7595 4.66998 19.3195 3.22998 15.2495 3.22998H15.1195C11.4095 3.22998 9.92953 4.41998 9.65953 7.61998C9.60953 8.02998 9.26953 8.33998 8.83953 8.29998C8.41953 8.26998 8.11953 7.89998 8.14953 7.48998C8.48953 3.50998 10.6395 1.72998 15.1095 1.72998H15.2395C20.1495 1.72998 22.2495 3.82998 22.2495 8.73998V15.26C22.2495 20.17 20.1495 22.27 15.2395 22.27Z" fill="currentColor"/>
<path d="M14.88 12.75H2C1.59 12.75 1.25 12.41 1.25 12C1.25 11.59 1.59 11.25 2 11.25H14.88C15.29 11.25 15.63 11.59 15.63 12C15.63 12.41 15.3 12.75 14.88 12.75Z" fill="currentColor"/>
<path d="M12.6498 16.1001C12.4598 16.1001 12.2698 16.0301 12.1198 15.8801C11.8298 15.5901 11.8298 15.1101 12.1198 14.8201L14.9398 12.0001L12.1198 9.18009C11.8298 8.89009 11.8298 8.41009 12.1198 8.12009C12.4098 7.83009 12.8898 7.83009 13.1798 8.12009L16.5298 11.4701C16.8198 11.7601 16.8198 12.2401 16.5298 12.5301L13.1798 15.8801C13.0298 16.0301 12.8398 16.1001 12.6498 16.1001Z" fill="currentColor"/>
</svg>
