<svg width="24" height="24" viewBox="0 0 24 24" fill="none" xmlns="http://www.w3.org/2000/svg">
<path d="M16.8 2H14.2C11 2 9 4 9 7.2V11.25H15.25C15.66 11.25 16 11.59 16 12C16 12.41 15.66 12.75 15.25 12.75H9V16.8C9 20 11 22 14.2 22H16.79C19.99 22 21.99 20 21.99 16.8V7.2C22 4 20 2 16.8 2Z" fill="currentColor"/>
<path d="M4.56043 11.2501L6.63043 9.18009C6.78043 9.03009 6.85043 8.84009 6.85043 8.65009C6.85043 8.46009 6.78043 8.26009 6.63043 8.12009C6.34043 7.83009 5.86043 7.83009 5.57043 8.12009L2.22043 11.4701C1.93043 11.7601 1.93043 12.2401 2.22043 12.5301L5.57043 15.8801C5.86043 16.1701 6.34043 16.1701 6.63043 15.8801C6.92043 15.5901 6.92043 15.1101 6.63043 14.8201L4.56043 12.7501H9.00043V11.2501H4.56043Z" fill="currentColor"/>
</svg>
