<svg viewBox="0 0 24 24" fill="none" xmlns="http://www.w3.org/2000/svg">
<path d="M16 1.96997H8C4 1.96997 2 3.96997 2 7.96997V12.97C2 17.97 4 18.97 8 18.97H8.5C8.78 18.97 9.14 19.15 9.3 19.37L10.8 21.37C11.46 22.25 12.54 22.25 13.2 21.37L14.7 19.37C14.89 19.12 15.19 18.97 15.5 18.97H16C20 18.97 22 16.97 22 12.97V7.96997C22 3.96997 20 1.96997 16 1.96997ZM8.53 12.17C8.82 12.46 8.82 12.94 8.53 13.23C8.38 13.38 8.19 13.45 8 13.45C7.81 13.45 7.62 13.38 7.47 13.23L5.47 11.23C5.18 10.94 5.18 10.46 5.47 10.17L7.47 8.16997C7.76 7.87997 8.24 7.87997 8.53 8.16997C8.82 8.45997 8.82 8.93997 8.53 9.22997L7.06 10.7L8.53 12.17ZM13.69 8.65997L11.69 13.33C11.57 13.61 11.29 13.78 11 13.78C10.9 13.78 10.8 13.76 10.7 13.72C10.32 13.56 10.14 13.12 10.31 12.73L12.31 8.05997C12.47 7.67997 12.91 7.49997 13.3 7.66997C13.68 7.83997 13.85 8.27997 13.69 8.65997ZM18.53 11.23L16.53 13.23C16.38 13.38 16.19 13.45 16 13.45C15.81 13.45 15.62 13.38 15.47 13.23C15.18 12.94 15.18 12.46 15.47 12.17L16.94 10.7L15.47 9.22997C15.18 8.93997 15.18 8.45997 15.47 8.16997C15.76 7.87997 16.24 7.87997 16.53 8.16997L18.53 10.17C18.82 10.46 18.82 10.94 18.53 11.23Z" fill="currentColor"/>
</svg>
