<svg viewBox="0 0 24 24" fill="none" xmlns="http://www.w3.org/2000/svg">
<path d="M11.9997 19.35C11.4797 19.35 10.9897 19.09 10.6397 18.63L9.72974 17.42H9.47974C6.76974 17.42 4.96973 16.65 4.96973 12.91V9.76999C4.96973 7.08999 6.33971 5.50001 8.82971 5.29001C9.01971 5.27001 9.24974 5.26001 9.47974 5.26001H14.5097C17.4197 5.26001 19.0197 6.85999 19.0197 9.76999V12.91C19.0197 13.15 19.0097 13.37 18.9797 13.59C18.7697 16.05 17.1797 17.42 14.4997 17.42H14.2497L13.3397 18.63C13.0097 19.09 12.5197 19.35 11.9997 19.35ZM9.48972 6.75C9.31972 6.75 9.14972 6.76 8.98972 6.78C7.23972 6.93 6.46973 7.84999 6.46973 9.76999V12.91C6.46973 15.49 7.21974 15.92 9.47974 15.92H9.78973C10.1897 15.92 10.6397 16.14 10.8897 16.46L11.8397 17.73C11.8997 17.81 11.9597 17.85 11.9897 17.85C12.0197 17.85 12.0797 17.81 12.1397 17.73L13.0797 16.47C13.3397 16.12 13.7497 15.92 14.1797 15.92H14.4897C16.4097 15.92 17.3297 15.15 17.4797 13.43C17.4997 13.24 17.5097 13.08 17.5097 12.9V9.76001C17.5097 7.68001 16.5797 6.75 14.4997 6.75H9.48972Z" fill="currentColor"/>
<path d="M15 22.75H9C3.57 22.75 1.25 20.43 1.25 15V9C1.25 3.57 3.57 1.25 9 1.25H15C20.43 1.25 22.75 3.57 22.75 9V15C22.75 20.43 20.43 22.75 15 22.75ZM9 2.75C4.39 2.75 2.75 4.39 2.75 9V15C2.75 19.61 4.39 21.25 9 21.25H15C19.61 21.25 21.25 19.61 21.25 15V9C21.25 4.39 19.61 2.75 15 2.75H9Z" fill="currentColor"/>
</svg>
