<svg viewBox="0 0 24 24" xmlns="http://www.w3.org/2000/svg">
<path d="M16.4201 6.42001V7.58001L9.14008 14.86C8.18008 13.99 7.58008 12.71 7.58008 11.34V6.42001C7.58008 4.36001 8.98008 2.65002 10.8801 2.16002C11.0701 2.11002 11.2501 2.27002 11.2501 2.46001V4.00001C11.2501 4.41001 11.5901 4.75002 12.0001 4.75002C12.4101 4.75002 12.7501 4.41001 12.7501 4.00001V2.46001C12.7501 2.27002 12.9301 2.11002 13.1201 2.16002C15.0201 2.65002 16.4201 4.36001 16.4201 6.42001Z" fill="currentColor"/>
<path d="M19.8098 9.81V11.4C19.8098 15.47 16.6798 18.82 12.6998 19.17V21.3C12.6998 21.69 12.3898 22 11.9998 22C11.6098 22 11.2998 21.69 11.2998 21.3V19.17C10.2098 19.07 9.17977 18.75 8.25977 18.24L9.28977 17.21C10.1098 17.59 11.0298 17.81 11.9998 17.81C15.5398 17.81 18.4198 14.93 18.4198 11.4V9.81C18.4198 9.43 18.7298 9.12 19.1198 9.12C19.4998 9.12 19.8098 9.43 19.8098 9.81Z" fill="currentColor"/>
<path d="M16.4202 10.08V11.53C16.4202 14.11 14.2002 16.18 11.5602 15.93C11.2802 15.9 11.0002 15.85 10.7402 15.76L16.4202 10.08Z" fill="currentColor"/>
<path d="M21.7701 2.23C21.4701 1.93 20.9801 1.93 20.6801 2.23L7.23012 15.68C6.20012 14.55 5.58012 13.05 5.58012 11.4V9.81001C5.58012 9.43001 5.27012 9.12 4.88012 9.12C4.50012 9.12 4.19012 9.43001 4.19012 9.81001V11.4C4.19012 13.43 4.97012 15.28 6.24012 16.67L2.22012 20.69C1.92012 20.99 1.92012 21.48 2.22012 21.78C2.38012 21.92 2.57012 22 2.77012 22C2.97012 22 3.16012 21.92 3.31012 21.77L21.7701 3.31C22.0801 3.01 22.0801 2.53 21.7701 2.23Z" fill="currentColor"/>
</svg>
