<svg viewBox="0 0 24 24" xmlns="http://www.w3.org/2000/svg">
<path d="M17.6199 5.72L7.00988 16.33C6.27988 15.34 5.87988 14.13 5.87988 12.82V8.11C5.87988 6.27 6.69988 4.62 7.99988 3.5V7.64C7.99988 8.03 8.31988 8.35 8.69988 8.35C9.08988 8.35 9.40988 8.03 9.40988 7.64V2.57C9.86988 2.34 10.3599 2.18 10.8699 2.09V5.75C10.8699 6.15 11.1899 6.46 11.5799 6.46C11.9699 6.46 12.2899 6.15 12.2899 5.75V2C14.6799 2.11 16.7399 3.61 17.6199 5.72Z" fill="currentColor"/>
<path d="M18.1202 8.88V12.82C18.1202 16.19 15.3702 18.94 12.0002 18.94C11.8202 18.94 11.6402 18.93 11.4602 18.91C11.3802 18.91 11.3002 18.9 11.2302 18.89C11.1002 18.87 10.9702 18.85 10.8502 18.83C10.8002 18.83 10.7602 18.81 10.7002 18.8C10.5602 18.77 10.4202 18.73 10.2902 18.69C10.0702 18.63 9.86016 18.55 9.66016 18.47C9.53016 18.42 9.41016 18.37 9.29016 18.3C9.26016 18.29 9.24016 18.27 9.21016 18.26C9.11016 18.21 9.01016 18.16 8.91016 18.09L18.1202 8.88Z" fill="currentColor"/>
<path d="M21.7502 11V13C21.7502 18.38 17.3802 22.75 12.0002 22.75C9.88018 22.75 7.85018 22.07 6.18018 20.82L7.26018 19.74C8.64018 20.72 10.2802 21.25 12.0002 21.25C16.5502 21.25 20.2502 17.55 20.2502 13V11C20.2502 10.59 20.5902 10.25 21.0002 10.25C21.4102 10.25 21.7502 10.59 21.7502 11Z" fill="currentColor"/>
<path d="M21.7699 2.23C21.4699 1.93 20.9799 1.93 20.6799 2.23L2.22988 20.69C1.92988 20.99 1.92988 21.48 2.22988 21.78C2.37988 21.92 2.56988 22 2.76988 22C2.96988 22 3.15988 21.92 3.30988 21.77L21.7699 3.31C22.0799 3.01 22.0799 2.53 21.7699 2.23Z" fill="currentColor"/>
</svg>
