<svg width="24" height="24" viewBox="0 0 24 24" fill="none" xmlns="http://www.w3.org/2000/svg">
<path d="M12 16.25C9.38 16.25 7.25 14.12 7.25 11.5V6C7.25 3.38 9.38 1.25 12 1.25C14.62 1.25 16.75 3.38 16.75 6V11.5C16.75 14.12 14.62 16.25 12 16.25ZM12 2.75C10.21 2.75 8.75 4.21 8.75 6V11.5C8.75 13.29 10.21 14.75 12 14.75C13.79 14.75 15.25 13.29 15.25 11.5V6C15.25 4.21 13.79 2.75 12 2.75Z" fill="#292D32"/>
<path d="M12.0001 19.75C7.3701 19.75 3.6001 15.98 3.6001 11.35V9.65002C3.6001 9.24002 3.9401 8.90002 4.3501 8.90002C4.7601 8.90002 5.1001 9.24002 5.1001 9.65002V11.35C5.1001 15.15 8.2001 18.25 12.0001 18.25C15.8001 18.25 18.9001 15.15 18.9001 11.35V9.65002C18.9001 9.24002 19.2401 8.90002 19.6501 8.90002C20.0601 8.90002 20.4001 9.24002 20.4001 9.65002V11.35C20.4001 15.98 16.6301 19.75 12.0001 19.75Z" fill="#292D32"/>
<path d="M13.3899 7.18001C13.3099 7.18001 13.2199 7.17001 13.1299 7.14001C12.3999 6.87001 11.5999 6.87001 10.8699 7.14001C10.4799 7.28001 10.0499 7.08001 9.90988 6.69001C9.76988 6.30001 9.96988 5.87001 10.3599 5.73001C11.4199 5.35001 12.5899 5.35001 13.6499 5.73001C14.0399 5.87001 14.2399 6.30001 14.0999 6.69001C13.9799 6.99001 13.6899 7.18001 13.3899 7.18001Z" fill="#292D32"/>
<path d="M12.8001 9.30001C12.7301 9.30001 12.6701 9.29001 12.6001 9.27001C12.2001 9.16001 11.7901 9.16001 11.3901 9.27001C10.9901 9.38001 10.5801 9.14001 10.4701 8.74001C10.3601 8.35001 10.6001 7.94001 11.0001 7.83001C11.6501 7.65001 12.3501 7.65001 13.0001 7.83001C13.4001 7.94001 13.6401 8.35001 13.5301 8.75001C13.4401 9.08001 13.1301 9.30001 12.8001 9.30001Z" fill="#292D32"/>
<path d="M12 22.75C11.59 22.75 11.25 22.41 11.25 22V19C11.25 18.59 11.59 18.25 12 18.25C12.41 18.25 12.75 18.59 12.75 19V22C12.75 22.41 12.41 22.75 12 22.75Z" fill="#292D32"/>
</svg>
