<svg width="24" height="24" viewBox="0 0 24 24" fill="none" xmlns="http://www.w3.org/2000/svg">
<path d="M17 22.75H7C3.35 22.75 1.25 20.65 1.25 17V12C1.25 8.35 3.35 6.25 7 6.25H17C20.65 6.25 22.75 8.35 22.75 12V17C22.75 20.65 20.65 22.75 17 22.75ZM7 7.75C4.14 7.75 2.75 9.14 2.75 12V17C2.75 19.86 4.14 21.25 7 21.25H17C19.86 21.25 21.25 19.86 21.25 17V12C21.25 9.14 19.86 7.75 17 7.75H7Z" fill="#292D32"/>
<path d="M18 5.25H6C5.59 5.25 5.25 4.91 5.25 4.5C5.25 4.09 5.59 3.75 6 3.75H18C18.41 3.75 18.75 4.09 18.75 4.5C18.75 4.91 18.41 5.25 18 5.25Z" fill="#292D32"/>
<path d="M15 2.75H9C8.59 2.75 8.25 2.41 8.25 2C8.25 1.59 8.59 1.25 9 1.25H15C15.41 1.25 15.75 1.59 15.75 2C15.75 2.41 15.41 2.75 15 2.75Z" fill="#292D32"/>
<path d="M8.89001 19.86C7.72001 19.86 6.77002 18.91 6.77002 17.74C6.77002 16.57 7.72001 15.62 8.89001 15.62C10.06 15.62 11.01 16.57 11.01 17.74C11.01 18.91 10.06 19.86 8.89001 19.86ZM8.89001 17.12C8.55001 17.12 8.27002 17.4 8.27002 17.74C8.27002 18.08 8.55001 18.36 8.89001 18.36C9.23001 18.36 9.51001 18.08 9.51001 17.74C9.51001 17.4 9.23001 17.12 8.89001 17.12Z" fill="#292D32"/>
<path d="M10.2598 18.49C9.84977 18.49 9.50977 18.15 9.50977 17.74V12.23C9.50977 11.35 10.0598 10.64 10.8998 10.41L13.6398 9.65998C14.5098 9.41998 15.0597 9.65003 15.3597 9.89003C15.6597 10.12 16.0198 10.59 16.0198 11.48V16.83C16.0198 17.24 15.6798 17.58 15.2698 17.58C14.8598 17.58 14.5198 17.24 14.5198 16.83V11.48C14.5198 11.2 14.4598 11.09 14.4398 11.08C14.4198 11.07 14.2998 11.03 14.0198 11.11L11.2897 11.86C11.0397 11.93 10.9998 12.1 10.9998 12.24V17.75C11.0098 18.15 10.6698 18.49 10.2598 18.49Z" fill="#292D32"/>
<path d="M13.91 18.95C12.74 18.95 11.79 18 11.79 16.83C11.79 15.66 12.74 14.71 13.91 14.71C15.08 14.71 16.0301 15.66 16.0301 16.83C16.0301 18 15.08 18.95 13.91 18.95ZM13.91 16.21C13.57 16.21 13.29 16.49 13.29 16.83C13.29 17.17 13.57 17.45 13.91 17.45C14.25 17.45 14.5301 17.17 14.5301 16.83C14.5301 16.49 14.25 16.21 13.91 16.21Z" fill="#292D32"/>
<path d="M10.2599 14.58C9.92993 14.58 9.6299 14.36 9.5399 14.03C9.4299 13.63 9.66993 13.22 10.0699 13.11L15.0799 11.74C15.4899 11.63 15.8899 11.87 15.9999 12.27C16.1099 12.67 15.8699 13.08 15.4699 13.19L10.4599 14.56C10.3899 14.57 10.3299 14.58 10.2599 14.58Z" fill="#292D32"/>
</svg>
