<svg width="24" height="24" viewBox="0 0 24 24" fill="none" xmlns="http://www.w3.org/2000/svg">
<path d="M2.58011 9.41999C2.50011 9.41999 2.41011 9.41001 2.33011 9.38001C1.94011 9.24001 1.74012 8.80999 1.87012 8.41999C2.54012 6.53999 3.70012 4.89002 5.25012 3.64002C5.57012 3.38002 6.04011 3.43 6.30011 3.75C6.56011 4.07 6.51013 4.54 6.19013 4.81C4.86013 5.88 3.86013 7.29999 3.29013 8.91999C3.18013 9.22999 2.89011 9.41999 2.58011 9.41999Z" fill="#292D32"/>
<path d="M2.57999 16.08C2.26999 16.08 1.98 15.89 1.87 15.58C1.46 14.41 1.25 13.21 1.25 12C1.25 11.59 1.59 11.25 2 11.25C2.41 11.25 2.75 11.59 2.75 12C2.75 13.04 2.93001 14.08 3.29001 15.08C3.43001 15.47 3.21999 15.9 2.82999 16.04C2.74999 16.07 2.65999 16.08 2.57999 16.08Z" fill="#292D32"/>
<path d="M12.0001 22.7501C10.9401 22.7501 9.89011 22.5901 8.87011 22.2801C8.47011 22.1601 8.25011 21.7401 8.37011 21.3401C8.49011 20.9401 8.91011 20.7201 9.31011 20.8401C10.1801 21.1101 11.0901 21.24 12.0001 21.24C17.1001 21.24 21.2501 17.09 21.2501 11.99C21.2501 11.47 21.2001 10.93 21.1001 10.36C21.0301 9.95004 21.3001 9.56004 21.7101 9.49004C22.1201 9.42004 22.5101 9.69003 22.5801 10.1C22.7001 10.76 22.7601 11.3801 22.7601 12.0001C22.7501 17.9301 17.9301 22.7501 12.0001 22.7501Z" fill="#292D32"/>
<path d="M5.72022 20.5001C5.55022 20.5001 5.39022 20.4501 5.25022 20.3301C4.68022 19.8701 4.22021 19.43 3.83021 18.98C3.56021 18.67 3.60022 18.19 3.91022 17.92C4.22022 17.65 4.70022 17.6901 4.97022 18.0001C5.30022 18.3801 5.70022 18.76 6.19022 19.16C6.51022 19.42 6.56021 19.8901 6.30021 20.2101C6.16021 20.4001 5.94022 20.5001 5.72022 20.5001Z" fill="#292D32"/>
<path d="M20.2399 7.09003C19.9999 7.09003 19.7699 6.98001 19.6199 6.76001C17.8899 4.24001 15.0399 2.73999 11.9999 2.73999C11.0899 2.73999 10.1799 2.87001 9.30991 3.14001C8.91991 3.26001 8.49991 3.04001 8.36991 2.64001C8.23991 2.24001 8.46991 1.82001 8.86991 1.70001C9.88991 1.39001 10.9399 1.22998 11.9999 1.22998C15.5399 1.22998 18.8499 2.98002 20.8599 5.90002C21.0899 6.24002 21.0099 6.71 20.6699 6.94C20.5399 7.05 20.3899 7.09003 20.2399 7.09003Z" fill="#292D32"/>
<path d="M8.59 17.8599C7.3 17.8599 6.25 16.81 6.25 15.52C6.25 14.23 7.3 13.1799 8.59 13.1799C9.88 13.1799 10.93 14.23 10.93 15.52C10.93 16.81 9.88 17.8599 8.59 17.8599ZM8.59 14.6799C8.13 14.6799 7.75 15.06 7.75 15.52C7.75 15.98 8.13 16.3599 8.59 16.3599C9.05 16.3599 9.42999 15.98 9.42999 15.52C9.42999 15.06 9.05 14.6799 8.59 14.6799Z" fill="#292D32"/>
<path d="M10.1802 16.27C9.77018 16.27 9.43018 15.93 9.43018 15.52V9.11996C9.43018 8.15996 10.0302 7.36996 10.9602 7.11996L14.1402 6.24996C15.1002 5.98996 15.7002 6.23995 16.0302 6.48995C16.5102 6.85995 16.7502 7.44996 16.7502 8.24996V14.46C16.7502 14.87 16.4102 15.21 16.0002 15.21C15.5902 15.21 15.2502 14.87 15.2502 14.46V8.24996C15.2502 7.90996 15.1802 7.72997 15.1102 7.68997C15.0402 7.63997 14.8302 7.61998 14.5202 7.69998L11.3402 8.56997C11.0602 8.64997 10.9202 8.82996 10.9202 9.11996V15.52C10.9302 15.93 10.5902 16.27 10.1802 16.27Z" fill="#292D32"/>
<path d="M14.4098 16.7999C13.1198 16.7999 12.0698 15.7499 12.0698 14.4599C12.0698 13.1699 13.1198 12.1199 14.4098 12.1199C15.6998 12.1199 16.7498 13.1699 16.7498 14.4599C16.7498 15.7499 15.6998 16.7999 14.4098 16.7999ZM14.4098 13.6199C13.9498 13.6199 13.5698 13.9999 13.5698 14.4599C13.5698 14.9199 13.9498 15.2999 14.4098 15.2999C14.8698 15.2999 15.2498 14.9199 15.2498 14.4599C15.2498 13.9999 14.8698 13.6199 14.4098 13.6199Z" fill="#292D32"/>
<path d="M10.1798 11.4999C9.84982 11.4999 9.54982 11.2799 9.45982 10.9499C9.34982 10.5499 9.58982 10.14 9.98982 10.03L15.8098 8.43993C16.2098 8.32993 16.6198 8.5699 16.7298 8.9699C16.8398 9.3699 16.5998 9.77994 16.1998 9.88994L10.3798 11.4799C10.3098 11.4999 10.2398 11.4999 10.1798 11.4999Z" fill="#292D32"/>
</svg>
