<svg viewBox="0 0 24 24" fill="none" xmlns="http://www.w3.org/2000/svg">
<path d="M19 8C20.6569 8 22 6.65685 22 5C22 3.34315 20.6569 2 19 2C17.3431 2 16 3.34315 16 5C16 6.65685 17.3431 8 19 8Z" fill="currentColor"/>
<path d="M17.7902 9.33976C16.2802 8.93976 15.0602 7.71976 14.6602 6.20976C14.4002 5.24976 14.4602 4.32976 14.7502 3.50976C14.9502 2.94976 14.6102 2.32976 14.0302 2.20976C12.5602 1.89976 10.9702 1.90976 9.31021 2.35976C5.53021 3.41976 2.64021 6.68976 2.10021 10.5798C1.18021 17.1998 6.79021 22.8098 13.4102 21.8998C17.3102 21.3598 20.5702 18.4698 21.6202 14.6798C22.0802 13.0298 22.0902 11.4398 21.7802 9.95976C21.6602 9.37976 21.0402 9.04976 20.4802 9.23976C19.6702 9.52976 18.7502 9.58976 17.7902 9.33976Z" fill="currentColor"/>
</svg>
