<svg width="24" height="24" fill="none" xmlns="http://www.w3.org/2000/svg"><path d="M12 14.38a2.38 2.38 0 1 0 0-4.76 2.38 2.38 0 0 0 0 4.76ZM20 18.75a.75.75 0 0 1-.6-1.2A9.17 9.17 0 0 0 21.25 12c0-2.02-.64-3.94-1.85-5.55a.75.75 0 0 1 1.2-.9c1.41 1.87 2.15 4.1 2.15 6.45 0 2.35-.74 4.58-2.15 6.45-.15.2-.37.3-.6.3ZM4 18.75c-.23 0-.45-.1-.6-.3-1.41-1.87-2.15-4.1-2.15-6.45 0-2.35.74-4.58 2.15-6.45a.75.75 0 0 1 1.2.9A9.17 9.17 0 0 0 2.75 12c0 2.02.64 3.94 1.85 5.55a.75.75 0 0 1-.6 1.2ZM16.8 16.35a.75.75 0 0 1-.6-1.2c.69-.91 1.05-2 1.05-3.15s-.36-2.24-1.05-3.15a.75.75 0 0 1 1.2-.9A6.73 6.73 0 0 1 18.75 12c0 1.47-.47 2.88-1.35 4.05-.15.2-.37.3-.6.3ZM7.2 16.35c-.23 0-.45-.1-.6-.3A6.709 6.709 0 0 1 5.25 12c0-1.47.47-2.88 1.35-4.05a.75.75 0 0 1 1.2.9c-.69.91-1.05 2-1.05 3.15s.36 2.24 1.05 3.15a.75.75 0 0 1-.6 1.2Z" fill="#292D32"/></svg>