<svg viewBox="0 0 24 24" fill="none" xmlns="http://www.w3.org/2000/svg">
<path d="M15 22.75H9C3.57 22.75 1.25 20.43 1.25 15V9C1.25 3.57 3.57 1.25 9 1.25H15C20.43 1.25 22.75 3.57 22.75 9V15C22.75 20.43 20.43 22.75 15 22.75ZM9 2.75C4.39 2.75 2.75 4.39 2.75 9V15C2.75 19.61 4.39 21.25 9 21.25H15C19.61 21.25 21.25 19.61 21.25 15V9C21.25 4.39 19.61 2.75 15 2.75H9Z" fill="currentColor"/>
<path d="M9.6002 15.7799C9.4102 15.7799 9.2202 15.7099 9.07019 15.5599L6.5802 13.0699C5.9902 12.4799 5.9902 11.5299 6.5802 10.9399L9.07019 8.44992C9.36019 8.15992 9.8402 8.15992 10.1302 8.44992C10.4202 8.73992 10.4202 9.21992 10.1302 9.50992L7.6402 11.9999L10.1302 14.4999C10.4202 14.7899 10.4202 15.2699 10.1302 15.5599C9.9802 15.6999 9.7902 15.7799 9.6002 15.7799Z" fill="currentColor"/>
<path d="M14.3998 15.7799C14.2098 15.7799 14.0198 15.7099 13.8698 15.5599C13.5798 15.2699 13.5798 14.7899 13.8698 14.4999L16.3598 11.9999L13.8698 9.49991C13.5798 9.20991 13.5798 8.72991 13.8698 8.43991C14.1598 8.14991 14.6398 8.14991 14.9298 8.43991L17.4198 10.9299C18.0098 11.5199 18.0098 12.4699 17.4198 13.0599L14.9298 15.5499C14.7898 15.6999 14.5898 15.7799 14.3998 15.7799Z" fill="currentColor"/>
</svg>
