<svg viewBox="0 0 24 24" fill="none" xmlns="http://www.w3.org/2000/svg">
<path d="M14.9697 22.75H8.96973C3.53973 22.75 1.21973 20.43 1.21973 15V9C1.21973 3.57 3.53973 1.25 8.96973 1.25H14.9697C20.3997 1.25 22.7197 3.57 22.7197 9V15C22.7197 20.43 20.4097 22.75 14.9697 22.75ZM8.96973 2.75C4.35973 2.75 2.71973 4.39 2.71973 9V15C2.71973 19.61 4.35973 21.25 8.96973 21.25H14.9697C19.5797 21.25 21.2197 19.61 21.2197 15V9C21.2197 4.39 19.5797 2.75 14.9697 2.75H8.96973Z" fill="currentColor"/>
<path d="M14.9697 22.75C14.5597 22.75 14.2197 22.41 14.2197 22V2C14.2197 1.59 14.5597 1.25 14.9697 1.25C15.3797 1.25 15.7197 1.59 15.7197 2V22C15.7197 22.41 15.3897 22.75 14.9697 22.75Z" fill="currentColor"/>
<path d="M7.97016 15.3099C7.78016 15.3099 7.59016 15.2399 7.44016 15.0899C7.15016 14.7999 7.15016 14.3199 7.44016 14.0299L9.47016 11.9999L7.44016 9.96988C7.15016 9.67988 7.15016 9.19988 7.44016 8.90988C7.73016 8.61988 8.21016 8.61988 8.50016 8.90988L11.0602 11.4699C11.3502 11.7599 11.3502 12.2399 11.0602 12.5299L8.50016 15.0899C8.36016 15.2399 8.17016 15.3099 7.97016 15.3099Z" fill="currentColor"/>
</svg>
