<svg viewBox="0 0 24 24" fill="none" xmlns="http://www.w3.org/2000/svg">
<path d="M14.9697 22.75H8.96973C3.53973 22.75 1.21973 20.43 1.21973 15V9C1.21973 3.57 3.53973 1.25 8.96973 1.25H14.9697C20.3997 1.25 22.7197 3.57 22.7197 9V15C22.7197 20.43 20.4097 22.75 14.9697 22.75ZM8.96973 2.75C4.35973 2.75 2.71973 4.39 2.71973 9V15C2.71973 19.61 4.35973 21.25 8.96973 21.25H14.9697C19.5797 21.25 21.2197 19.61 21.2197 15V9C21.2197 4.39 19.5797 2.75 14.9697 2.75H8.96973Z" fill="currentColor"/>
<path d="M22 9.25H2C1.59 9.25 1.25 8.91 1.25 8.5C1.25 8.09 1.59 7.75 2 7.75H22C22.41 7.75 22.75 8.09 22.75 8.5C22.75 8.91 22.41 9.25 22 9.25Z" fill="currentColor"/>
<path d="M14.5599 16.2499C14.3699 16.2499 14.1799 16.1799 14.0299 16.0299L11.9999 13.9999L9.96988 16.0299C9.67988 16.3199 9.19988 16.3199 8.90988 16.0299C8.61988 15.7399 8.61988 15.2599 8.90988 14.9699L11.4699 12.4099C11.7599 12.1199 12.2399 12.1199 12.5299 12.4099L15.0899 14.9699C15.3799 15.2599 15.3799 15.7399 15.0899 16.0299C14.9399 16.1799 14.7499 16.2499 14.5599 16.2499Z" fill="currentColor"/>
</svg>
