<svg viewBox="0 0 24 24" fill="none" xmlns="http://www.w3.org/2000/svg">
<path d="M17 21.25H7C3.35 21.25 1.25 19.15 1.25 15.5V8.5C1.25 4.85 3.35 2.75 7 2.75H12C12.41 2.75 12.75 3.09 12.75 3.5C12.75 3.91 12.41 4.25 12 4.25H7C4.14 4.25 2.75 5.64 2.75 8.5V15.5C2.75 18.36 4.14 19.75 7 19.75H17C19.86 19.75 21.25 18.36 21.25 15.5V11.5C21.25 11.09 21.59 10.75 22 10.75C22.41 10.75 22.75 11.09 22.75 11.5V15.5C22.75 19.15 20.65 21.25 17 21.25Z" fill="currentColor"/>
<path d="M11.9998 12.87C11.1598 12.87 10.3098 12.61 9.65978 12.08L6.52978 9.58002C6.20978 9.32002 6.14978 8.85002 6.40978 8.53002C6.66978 8.21002 7.13977 8.15003 7.45977 8.41003L10.5898 10.91C11.3498 11.52 12.6398 11.52 13.3998 10.91C13.7198 10.65 14.1898 10.7 14.4498 11.03C14.7098 11.35 14.6598 11.83 14.3298 12.08C13.6898 12.61 12.8398 12.87 11.9998 12.87Z" fill="currentColor"/>
<path d="M16.7402 9.74998C16.3302 9.74998 16.0502 9.60998 15.8702 9.47998C15.5402 9.23998 15.0302 8.63999 15.3302 7.31999L15.3802 7.10999C15.4002 7.02999 15.3402 6.83998 15.2902 6.77998L14.9402 6.42998C14.3502 5.82998 14.1202 5.12998 14.3202 4.49998C14.5202 3.87998 15.1102 3.43999 15.9402 3.29999L16.3202 3.23999C16.3902 3.21999 16.5302 3.11999 16.5702 3.04999L16.8502 2.47998C17.2402 1.68998 17.8402 1.23999 18.5002 1.23999C19.1602 1.23999 19.7602 1.68998 20.1502 2.47998L20.4302 3.04999C20.4602 3.10999 20.6102 3.21999 20.6802 3.23999L21.0602 3.29999C21.8902 3.43999 22.4802 3.87998 22.6802 4.49998C22.8802 5.11998 22.6602 5.81998 22.0602 6.42998L21.7102 6.77998C21.6602 6.83998 21.6002 7.02999 21.6202 7.10999L21.6702 7.31999C21.9702 8.63999 21.4602 9.23998 21.1302 9.47998C20.8002 9.71998 20.0802 10.01 18.9302 9.31999L18.6802 9.16998C18.6102 9.12998 18.4102 9.12998 18.3402 9.16998L18.0802 9.31999C17.5402 9.63999 17.0902 9.74998 16.7402 9.74998ZM18.4902 2.74998C18.4802 2.75998 18.3402 2.85998 18.2002 3.14998L17.9202 3.71999C17.6802 4.20999 17.1102 4.62999 16.5802 4.71999L16.2002 4.77998C15.8802 4.82998 15.7702 4.93999 15.7602 4.95999C15.7602 4.97999 15.7902 5.13998 16.0202 5.36998L16.3702 5.71999C16.7802 6.13999 16.9902 6.85998 16.8602 7.42998L16.8102 7.63998C16.7302 7.99998 16.7602 8.18998 16.7802 8.25998C16.8002 8.23998 16.9802 8.21999 17.3102 8.01999L17.5702 7.86998C18.1202 7.53998 18.9102 7.53998 19.4602 7.86998L19.7102 8.01999C20.0402 8.21999 20.2102 8.23999 20.2702 8.23999C20.2602 8.20999 20.3002 8.02998 20.2102 7.63998L20.1602 7.42998C20.0302 6.84998 20.2402 6.13999 20.6502 5.71999L21.0002 5.36998C21.2302 5.13998 21.2602 4.97998 21.2602 4.94998C21.2502 4.92998 21.1402 4.82999 20.8202 4.76999L20.4402 4.70999C19.9002 4.61999 19.3402 4.19999 19.1002 3.70999L18.8202 3.14998C18.6602 2.84998 18.5302 2.75998 18.4902 2.74998Z" fill="currentColor"/>
</svg>
