<svg viewBox="0 0 24 24" xmlns="http://www.w3.org/2000/svg">
<path d="M11.9702 22.75C6.05021 22.75 1.22021 17.93 1.22021 12C1.22021 6.07 6.05021 1.25 11.9702 1.25C17.8902 1.25 22.7202 6.07 22.7202 12C22.7202 17.93 17.9002 22.75 11.9702 22.75ZM11.9702 2.75C6.87021 2.75 2.72021 6.9 2.72021 12C2.72021 17.1 6.87021 21.25 11.9702 21.25C17.0702 21.25 21.2202 17.1 21.2202 12C21.2202 6.9 17.0702 2.75 11.9702 2.75Z" fill="currentColor"/>
<path d="M13.27 16.98H10.73C8.20002 16.98 7.02002 15.8 7.02002 13.27V10.73C7.02002 8.20002 8.20002 7.02002 10.73 7.02002H13.27C15.8 7.02002 16.98 8.20002 16.98 10.73V13.27C16.98 15.8 15.8 16.98 13.27 16.98ZM10.73 8.52002C9.04002 8.52002 8.52002 9.04002 8.52002 10.73V13.27C8.52002 14.96 9.04002 15.48 10.73 15.48H13.27C14.96 15.48 15.48 14.96 15.48 13.27V10.73C15.48 9.04002 14.96 8.52002 13.27 8.52002H10.73Z" fill="currentColor"/>
</svg>
