<svg width="24" height="24" viewBox="0 0 24 24" fill="none" xmlns="http://www.w3.org/2000/svg">
<path opacity="0.4" d="M17.74 7.57001C17.75 7.64001 17.75 7.72001 17.74 7.79001C17.74 7.72001 17.73 7.65001 17.73 7.58001L17.74 7.57001Z" fill="#292D32"/>
<path d="M17.2799 6.56L3.82988 20.01C2.42988 19.12 1.87988 17.53 1.87988 16V8C1.87988 4.58 3.20988 3.25 6.62988 3.25H12.6299C15.5199 3.25 16.9099 4.2 17.2799 6.56Z" fill="#292D32"/>
<path d="M21.4 2.23C21.1 1.93 20.61 1.93 20.31 2.23L1.85 20.69C1.55 20.99 1.55 21.48 1.85 21.78C2 21.92 2.2 22 2.39 22C2.59 22 2.78 21.92 2.93 21.77L21.4 3.31C21.7 3.01 21.7 2.53 21.4 2.23Z" fill="#292D32"/>
<path d="M22.3802 8.37998V15.62C22.3802 17.05 21.6802 17.62 21.2802 17.83C21.0902 17.93 20.7902 18.04 20.4202 18.04C19.9902 18.04 19.4602 17.9 18.8402 17.46L17.3602 16.42C17.2902 18.63 16.5902 19.89 15.0002 20.42C14.3602 20.65 13.5702 20.75 12.6202 20.75H6.62016C6.38016 20.75 6.15016 20.74 5.91016 20.71L15.0002 11.63L20.6502 5.97998C20.9102 5.99998 21.1202 6.07998 21.2802 6.16998C21.6802 6.37998 22.3802 6.94998 22.3802 8.37998Z" fill="#292D32"/>
</svg>
