<svg viewBox="0 0 24 24" xmlns="http://www.w3.org/2000/svg">
<path d="M12.76 20.75C11.95 20.75 11.08 20.47 10.18 19.91L7.2 18.05C6.99 17.92 6.76 17.85 6.52 17.85H5.06C2.6 17.85 1.25 16.5 1.25 14.04V9.96002C1.25 7.50002 2.6 6.15002 5.06 6.15002H6.52C6.76 6.15002 7 6.08002 7.2 5.95002L10.18 4.09002C11.67 3.16002 13.11 2.99002 14.25 3.63002C15.39 4.26002 16.01 5.57002 16.01 7.33002V16.69C16.01 18.44 15.38 19.76 14.25 20.39C13.8 20.63 13.3 20.75 12.76 20.75ZM5.06 7.65002C3.44 7.65002 2.75 8.34002 2.75 9.96002V14.04C2.75 15.66 3.44 16.35 5.06 16.35H6.52C7.04 16.35 7.55 16.5 8 16.77L10.98 18.63C11.97 19.25 12.9 19.4 13.53 19.06C14.16 18.71 14.52 17.84 14.52 16.68V7.32002C14.52 6.15002 14.16 5.28002 13.53 4.94002C12.9 4.59002 11.97 4.75002 10.98 5.37002L8 7.22002C7.55 7.50002 7.04 7.65002 6.52 7.65002H5.06Z" fill="currentColor"/>
<path d="M22 12.75H18C17.59 12.75 17.25 12.41 17.25 12C17.25 11.59 17.59 11.25 18 11.25H22C22.41 11.25 22.75 11.59 22.75 12C22.75 12.41 22.41 12.75 22 12.75Z" fill="currentColor"/>
</svg>
