<svg viewBox="0 0 24 24" xmlns="http://www.w3.org/2000/svg">
<path d="M17.9998 16.75C17.8398 16.75 17.6898 16.7 17.5498 16.6C17.2198 16.35 17.1498 15.88 17.3998 15.55C18.6598 13.87 18.9298 11.64 18.1198 9.71001C17.9598 9.33001 18.1398 8.89001 18.5198 8.73001C18.8998 8.57001 19.3398 8.75001 19.4998 9.13001C20.5198 11.55 20.1698 14.36 18.5998 16.46C18.4498 16.65 18.2298 16.75 17.9998 16.75Z" fill="currentColor"/>
<path d="M19.8299 19.25C19.6699 19.25 19.5199 19.2 19.3799 19.1C19.0499 18.85 18.9799 18.38 19.2299 18.05C21.3699 15.2 21.8399 11.38 20.4599 8.09002C20.2999 7.71002 20.4799 7.27002 20.8599 7.11002C21.2399 6.95002 21.6799 7.13002 21.8399 7.51002C23.4299 11.29 22.8899 15.67 20.4299 18.95C20.2899 19.15 20.0599 19.25 19.8299 19.25Z" fill="currentColor"/>
<path d="M14.04 12.96C14.67 12.33 15.75 12.78 15.75 13.67V16.6C15.75 18.32 15.13 19.61 14.02 20.23C13.57 20.48 13.07 20.6 12.55 20.6C11.75 20.6 10.89 20.33 10.01 19.78L9.36998 19.38C8.82998 19.04 8.73998 18.28 9.18998 17.83L14.04 12.96Z" fill="currentColor"/>
<path d="M21.77 2.23C21.47 1.93 20.98 1.93 20.68 2.23L15.73 7.18C15.67 5.58 15.07 4.38 14.01 3.79C12.89 3.17 11.46 3.33 10 4.24L7.09 6.06C6.89 6.18 6.66 6.25 6.43 6.25H5.5H5C2.58 6.25 1.25 7.58 1.25 10V14C1.25 16.42 2.58 17.75 5 17.75H5.16L2.22 20.69C1.92 20.99 1.92 21.48 2.22 21.78C2.38 21.92 2.57 22 2.77 22C2.97 22 3.16 21.92 3.31 21.77L21.77 3.31C22.08 3.01 22.08 2.53 21.77 2.23Z" fill="currentColor"/>
</svg>
