<svg viewBox="0 0 24 24" xmlns="http://www.w3.org/2000/svg">
<path d="M7 17.75H5C2.58 17.75 1.25 16.42 1.25 14V9.99999C1.25 7.57999 2.58 6.24999 5 6.24999H6.43C6.66 6.24999 6.89 6.17999 7.09 6.05999L10.01 4.22999C11.47 3.31999 12.89 3.14999 14.01 3.76999C15.13 4.38999 15.74 5.67999 15.74 7.40999V8.36999C15.74 8.77999 15.4 9.11999 14.99 9.11999C14.58 9.11999 14.24 8.77999 14.24 8.36999V7.40999C14.24 6.26999 13.89 5.41999 13.28 5.08999C12.67 4.74999 11.77 4.89999 10.8 5.50999L7.88 7.32999C7.45 7.60999 6.94 7.74999 6.43 7.74999H5C3.42 7.74999 2.75 8.41999 2.75 9.99999V14C2.75 15.58 3.42 16.25 5 16.25H7C7.41 16.25 7.75 16.59 7.75 17C7.75 17.41 7.41 17.75 7 17.75Z" fill="currentColor"/>
<path d="M12.5501 20.59C11.7601 20.59 10.8901 20.31 10.0201 19.76C9.67009 19.54 9.56009 19.08 9.78009 18.73C10.0001 18.38 10.4601 18.27 10.8101 18.49C11.7801 19.09 12.6801 19.25 13.2901 18.91C13.9001 18.57 14.2501 17.72 14.2501 16.59V12.95C14.2501 12.54 14.5901 12.2 15.0001 12.2C15.4101 12.2 15.7501 12.54 15.7501 12.95V16.59C15.7501 18.31 15.1301 19.61 14.0201 20.23C13.5701 20.47 13.0701 20.59 12.5501 20.59Z" fill="currentColor"/>
<path d="M17.9998 16.75C17.8398 16.75 17.6898 16.7 17.5498 16.6C17.2198 16.35 17.1498 15.88 17.3998 15.55C18.6598 13.87 18.9298 11.64 18.1198 9.71001C17.9598 9.33001 18.1398 8.89001 18.5198 8.73001C18.8998 8.57001 19.3398 8.75001 19.4998 9.13001C20.5198 11.55 20.1698 14.36 18.5998 16.46C18.4498 16.65 18.2298 16.75 17.9998 16.75Z" fill="currentColor"/>
<path d="M19.8299 19.25C19.6699 19.25 19.5199 19.2 19.3799 19.1C19.0499 18.85 18.9799 18.38 19.2299 18.05C21.3699 15.2 21.8399 11.38 20.4599 8.09002C20.2999 7.71002 20.4799 7.27002 20.8599 7.11002C21.2499 6.95002 21.6799 7.13002 21.8399 7.51002C23.4299 11.29 22.8899 15.67 20.4299 18.95C20.2899 19.15 20.0599 19.25 19.8299 19.25Z" fill="currentColor"/>
<path d="M1.99994 22.75C1.80994 22.75 1.61994 22.68 1.46994 22.53C1.17994 22.24 1.17994 21.76 1.46994 21.47L21.4699 1.47C21.7599 1.18 22.2399 1.18 22.5299 1.47C22.8199 1.76 22.8199 2.24 22.5299 2.53L2.52994 22.53C2.37994 22.68 2.18994 22.75 1.99994 22.75Z" fill="currentColor"/>
</svg>
