<svg viewBox="0 0 24 24" xmlns="http://www.w3.org/2000/svg">
<path d="M19.3299 16.75C19.1699 16.75 19.0199 16.7 18.8799 16.6C18.5499 16.35 18.4799 15.88 18.7299 15.55C20.2999 13.46 20.2999 10.54 18.7299 8.45003C18.4799 8.12003 18.5499 7.65003 18.8799 7.40003C19.2099 7.15003 19.6799 7.22003 19.9299 7.55003C21.8999 10.17 21.8999 13.83 19.9299 16.45C19.7899 16.65 19.5599 16.75 19.3299 16.75Z" fill="currentColor"/>
<path d="M15.3501 3.78003C14.2301 3.16003 12.8001 3.32003 11.3401 4.23003L8.42008 6.06003C8.22008 6.18003 7.99008 6.25003 7.76008 6.25003H6.83008H6.33008C3.91008 6.25003 2.58008 7.58003 2.58008 10V14C2.58008 16.42 3.91008 17.75 6.33008 17.75H6.83008H7.76008C7.99008 17.75 8.22008 17.82 8.42008 17.94L11.3401 19.77C12.2201 20.32 13.0801 20.59 13.8801 20.59C14.4001 20.59 14.9001 20.47 15.3501 20.22C16.4601 19.6 17.0801 18.31 17.0801 16.59V7.41003C17.0801 5.69003 16.4601 4.40003 15.3501 3.78003Z" fill="currentColor"/>
</svg>
