<svg viewBox="0 0 24 24" xmlns="http://www.w3.org/2000/svg">
<path d="M16.05 20.59C15.26 20.59 14.39 20.31 13.52 19.76L10.6 17.93C10.4 17.81 10.17 17.74 9.94 17.74H8.5C6.08 17.74 4.75 16.41 4.75 13.99V9.98998C4.75 7.56998 6.08 6.23998 8.5 6.23998H9.93C10.16 6.23998 10.39 6.16998 10.59 6.04998L13.51 4.21998C14.97 3.30998 16.39 3.13998 17.51 3.75998C18.63 4.37998 19.24 5.66998 19.24 7.39998V16.57C19.24 18.29 18.62 19.59 17.51 20.21C17.07 20.47 16.57 20.59 16.05 20.59ZM8.5 7.74998C6.92 7.74998 6.25 8.41998 6.25 9.99998V14C6.25 15.58 6.92 16.25 8.5 16.25H9.93C10.45 16.25 10.95 16.39 11.39 16.67L14.31 18.5C15.28 19.1 16.18 19.26 16.79 18.92C17.4 18.58 17.75 17.73 17.75 16.6V7.40998C17.75 6.26998 17.4 5.41998 16.79 5.08998C16.18 4.74998 15.28 4.89998 14.31 5.50998L11.39 7.33998C10.95 7.60998 10.45 7.75998 9.93 7.75998H8.5V7.74998Z" fill="currentColor"/>
</svg>
