<svg width="24" height="24" viewBox="0 0 24 24" fill="none" xmlns="http://www.w3.org/2000/svg">
<path d="M22.5299 13.42L21.0799 11.97L22.4799 10.57C22.7699 10.28 22.7699 9.79999 22.4799 9.50999C22.1899 9.21999 21.7099 9.21999 21.4199 9.50999L20.0199 10.91L18.5699 9.45999C18.2799 9.16999 17.7999 9.16999 17.5099 9.45999C17.2199 9.74999 17.2199 10.23 17.5099 10.52L18.9599 11.97L17.4699 13.46C17.1799 13.75 17.1799 14.23 17.4699 14.52C17.6199 14.67 17.8099 14.74 17.9999 14.74C18.1899 14.74 18.3799 14.67 18.5299 14.52L20.0199 13.03L21.4699 14.48C21.6199 14.63 21.8099 14.7 21.9999 14.7C22.1899 14.7 22.3799 14.63 22.5299 14.48C22.8199 14.19 22.8199 13.72 22.5299 13.42Z" fill="#292D32"/>
<path d="M14.02 3.78003C12.9 3.16003 11.47 3.32003 10.01 4.23003L7.09 6.06003C6.89 6.18003 6.66 6.25003 6.43 6.25003H5.5H5C2.58 6.25003 1.25 7.58003 1.25 10V14C1.25 16.42 2.58 17.75 5 17.75H5.5H6.43C6.66 17.75 6.89 17.82 7.09 17.94L10.01 19.77C10.89 20.32 11.75 20.59 12.55 20.59C13.07 20.59 13.57 20.47 14.02 20.22C15.13 19.6 15.75 18.31 15.75 16.59V7.41003C15.75 5.69003 15.13 4.40003 14.02 3.78003Z" fill="#292D32"/>
</svg>
