<svg width="24" height="24" viewBox="0 0 24 24" fill="none" xmlns="http://www.w3.org/2000/svg">
<path d="M13.8801 20.59C13.0901 20.59 12.2201 20.31 11.3501 19.76L8.43008 17.93C8.23008 17.81 8.00008 17.74 7.77008 17.74H6.33008C3.91008 17.74 2.58008 16.41 2.58008 13.99V9.98998C2.58008 7.56998 3.91008 6.23998 6.33008 6.23998H7.76008C7.99008 6.23998 8.22008 6.16998 8.42008 6.04998L11.3401 4.21998C12.8001 3.30998 14.2201 3.13998 15.3401 3.75998C16.4601 4.37998 17.0701 5.66998 17.0701 7.39998V16.57C17.0701 18.29 16.4501 19.59 15.3401 20.21C14.9001 20.47 14.4101 20.59 13.8801 20.59ZM6.33008 7.74998C4.75008 7.74998 4.08008 8.41998 4.08008 9.99998V14C4.08008 15.58 4.75008 16.25 6.33008 16.25H7.76008C8.28008 16.25 8.78008 16.39 9.22008 16.67L12.1401 18.5C13.1101 19.1 14.0101 19.26 14.6201 18.92C15.2301 18.58 15.5801 17.73 15.5801 16.6V7.40998C15.5801 6.26998 15.2301 5.41998 14.6201 5.08998C14.0101 4.74998 13.1101 4.89998 12.1401 5.50998L9.22008 7.32998C8.78008 7.60998 8.28008 7.74998 7.76008 7.74998H6.33008Z" fill="#292D32"/>
<path d="M19.3299 16.75C19.1699 16.75 19.0199 16.7 18.8799 16.6C18.5499 16.35 18.4799 15.88 18.7299 15.55C20.2999 13.46 20.2999 10.54 18.7299 8.45003C18.4799 8.12003 18.5499 7.65003 18.8799 7.40003C19.2099 7.15003 19.6799 7.22003 19.9299 7.55003C21.8999 10.17 21.8999 13.83 19.9299 16.45C19.7899 16.65 19.5599 16.75 19.3299 16.75Z" fill="#292D32"/>
</svg>
